<?xml version="1.0" encoding="UTF-8"?>
<!DOCTYPE svg PUBLIC "-//W3C//DTD SVG 1.1//EN" "http://www.w3.org/Graphics/SVG/1.1/DTD/svg11.dtd">
<!-- Creator: CorelDRAW 2020 (64-Bit) -->
<svg xmlns="http://www.w3.org/2000/svg" xml:space="preserve" width="63.8868mm" height="25.2361mm" version="1.1" shape-rendering="geometricPrecision" text-rendering="geometricPrecision" image-rendering="optimizeQuality" fill-rule="evenodd" clip-rule="evenodd" viewBox="0 0 3329.66 1315.26"
  xmlns:xlink="http://www.w3.org/1999/xlink"
  xmlns:xodm="http://www.corel.com/coreldraw/odm/2003">
  <g id="Layer_x0020_1" fill="#ffffff" stroke='#000000' stroke-width='5' fill-rule="nonzero">
    <metadata id="CorelCorpID_0Corel-Layer"/>
    <polygon points="-0,321.25 -0,5.3 228.14,5.3 228.14,42.36 41.92,42.36 41.92,139.44 216.22,139.44 216.22,176.51 41.92,176.51 41.92,284.18 235.64,284.18 235.64,321.25 "/>
    <polygon id="1" points="293,321.25 293,5.3 335.95,5.3 501.72,253.29 501.72,5.3 541.88,5.3 541.88,321.25 498.93,321.25 333.16,73.25 333.16,321.25 "/>
    <path id="2" d="M590.93 231.52l37.51 -5.14c1.03,24.19 5.51,40.74 13.53,49.72 8.02,8.9 19.2,13.38 33.39,13.38 10.44,0 19.49,-2.43 27.06,-7.21 7.57,-4.85 12.87,-11.4 15.74,-19.64 2.87,-8.23 4.26,-21.47 4.26,-39.56l0 -217.77 41.92 0 0 215.27c0,26.4 -3.16,46.85 -9.56,61.41 -6.4,14.49 -16.47,25.52 -30.37,33.17 -13.83,7.57 -30.08,11.4 -48.68,11.4 -27.73,0 -48.91,-7.94 -63.62,-23.9 -14.71,-15.96 -21.77,-39.64 -21.18,-71.12z"/>
    <path id="3" d="M819.95 167.47c0,-52.37 14.12,-93.41 42.29,-123.04 28.17,-29.64 64.5,-44.43 109.07,-44.43 29.2,0 55.45,6.99 78.91,20.89 23.39,13.9 41.26,33.31 53.54,58.25 12.28,24.86 18.46,53.1 18.46,84.65 0,31.99 -6.47,60.68 -19.41,85.9 -12.95,25.3 -31.26,44.42 -54.94,57.37 -23.76,13.01 -49.35,19.49 -76.79,19.49 -29.79,0 -56.33,-7.21 -79.79,-21.55 -23.39,-14.34 -41.18,-33.9 -53.25,-58.76 -12.06,-24.79 -18.09,-51.04 -18.09,-78.77zm43.24 0.73c0,38.02 10.23,67.95 30.67,89.79 20.45,21.84 46.11,32.8 77,32.8 31.48,0 57.29,-11.03 77.67,-33.1 20.29,-22.06 30.45,-53.4 30.45,-93.99 0,-25.67 -4.34,-48.1 -13.02,-67.22 -8.68,-19.12 -21.4,-33.98 -38.1,-44.49 -16.77,-10.52 -35.52,-15.81 -56.33,-15.81 -29.57,0 -55.01,10.15 -76.34,30.45 -21.33,20.3 -32,54.13 -32,101.57z"/>
    <path id="4" d="M1265.05 321.25l0 -133.85 -121.79 -182.1 50.3 0 62.44 95.61c11.62,17.73 22.43,35.45 32.29,53.17 9.64,-16.55 21.33,-35.08 34.93,-55.67l61.19 -93.11 48.76 0 -126.2 182.1 0 133.85 -41.92 0z"/>
    <path d="M1260.52 1090.28l0 -315.95 108.85 0c24.56,0 43.32,1.47 56.26,4.49 18.09,4.2 33.54,11.77 46.33,22.65 16.69,14.12 29.12,32.07 37.36,53.98 8.31,21.92 12.43,46.99 12.43,75.16 0,23.97 -2.79,45.23 -8.38,63.76 -5.59,18.53 -12.8,33.9 -21.55,46.04 -8.82,12.13 -18.39,21.69 -28.83,28.61 -10.37,6.98 -22.94,12.28 -37.66,15.89 -14.78,3.6 -31.69,5.37 -50.82,5.37l-114 0zm41.92 -37.07l67.37 0c20.81,0 37.14,-1.91 48.98,-5.81 11.84,-3.9 21.25,-9.34 28.31,-16.4 9.86,-9.93 17.58,-23.31 23.09,-40.08 5.52,-16.77 8.31,-37.07 8.31,-60.97 0,-33.1 -5.44,-58.54 -16.26,-76.34 -10.81,-17.8 -23.97,-29.71 -39.49,-35.74 -11.18,-4.34 -29.2,-6.47 -54.06,-6.47l-66.26 0 0 241.82z"/>
    <polygon id="1" points="1580.07,1090.28 1580.07,774.33 1808.21,774.33 1808.21,811.4 1621.99,811.4 1621.99,908.48 1796.3,908.48 1796.3,945.54 1621.99,945.54 1621.99,1053.21 1815.71,1053.21 1815.71,1090.28 "/>
    <path id="2" d="M2098.57 979.45l41.92 10.59c-8.75,34.35 -24.49,60.46 -47.21,78.47 -22.73,18.02 -50.53,27.06 -83.4,27.06 -33.98,0 -61.63,-6.91 -82.96,-20.81 -21.33,-13.83 -37.51,-33.91 -48.61,-60.16 -11.11,-26.33 -16.7,-54.5 -16.7,-84.65 0,-32.88 6.25,-61.56 18.83,-86.05 12.58,-24.49 30.45,-43.1 53.61,-55.82 23.17,-12.72 48.68,-19.05 76.48,-19.05 31.63,0 58.17,8.02 79.65,24.13 21.55,16.1 36.55,38.68 45.01,67.81l-41.04 9.71c-7.28,-22.95 -17.94,-39.71 -31.84,-50.16 -13.9,-10.52 -31.41,-15.74 -52.51,-15.74 -24.19,0 -44.49,5.81 -60.74,17.43 -16.26,11.62 -27.73,27.28 -34.27,46.85 -6.62,19.63 -9.93,39.86 -9.93,60.67 0,26.85 3.9,50.3 11.69,70.31 7.8,20.08 19.94,35.01 36.4,44.94 16.47,9.93 34.27,14.85 53.47,14.85 23.39,0 43.1,-6.76 59.28,-20.23 16.18,-13.53 27.14,-33.53 32.88,-60.16z"/>
    <polygon id="3" points="2199.25,1090.28 2199.25,774.33 2241.17,774.33 2241.17,1090.28 "/>
    <path id="4" d="M2301.11 988.79l39.27 -3.53c1.84,15.89 6.18,28.9 13.02,39.13 6.84,10.15 17.43,18.39 31.77,24.71 14.34,6.25 30.52,9.41 48.46,9.41 15.96,0 30,-2.36 42.22,-7.13 12.21,-4.78 21.25,-11.33 27.21,-19.63 5.96,-8.31 8.97,-17.36 8.97,-27.06 0,-9.86 -2.87,-18.46 -8.6,-25.89 -5.74,-7.35 -15.23,-13.53 -28.47,-18.61 -8.45,-3.24 -27.21,-8.38 -56.26,-15.37 -29.05,-6.98 -49.35,-13.53 -60.97,-19.71 -15.08,-7.94 -26.25,-17.8 -33.61,-29.49 -7.43,-11.7 -11.1,-24.86 -11.1,-39.35 0,-16.03 4.56,-30.96 13.6,-44.79 9.05,-13.9 22.21,-24.42 39.64,-31.63 17.36,-7.21 36.7,-10.81 57.96,-10.81 23.39,0 44.05,3.75 61.92,11.33 17.87,7.5 31.63,18.61 41.26,33.31 9.63,14.63 14.78,31.26 15.52,49.79l-40.15 3.09c-2.14,-19.93 -9.42,-35.01 -21.85,-45.16 -12.42,-10.23 -30.81,-15.3 -55.08,-15.3 -25.3,0 -43.76,4.63 -55.3,13.9 -11.55,9.27 -17.36,20.45 -17.36,33.54 0,11.33 4.12,20.66 12.28,28.02 8.09,7.28 29.05,14.85 63.03,22.5 33.98,7.72 57.29,14.41 69.94,20.15 18.31,8.46 31.92,19.12 40.67,32.14 8.76,12.94 13.09,27.87 13.09,44.79 0,16.84 -4.78,32.58 -14.42,47.44 -9.63,14.85 -23.39,26.4 -41.4,34.64 -18.02,8.24 -38.24,12.36 -60.82,12.36 -28.53,0 -52.44,-4.19 -71.7,-12.5 -19.35,-8.31 -34.42,-20.81 -45.38,-37.58 -11.03,-16.69 -16.77,-35.6 -17.36,-56.7z"/>
    <polygon id="5" points="2616.17,1090.28 2616.17,774.33 2658.09,774.33 2658.09,1090.28 "/>
    <path id="6" d="M2718.91 936.5c0,-52.37 14.12,-93.41 42.29,-123.04 28.17,-29.64 64.5,-44.43 109.07,-44.43 29.2,0 55.45,6.99 78.91,20.89 23.39,13.9 41.26,33.31 53.54,58.25 12.28,24.86 18.46,53.1 18.46,84.65 0,31.99 -6.47,60.68 -19.41,85.9 -12.95,25.3 -31.26,44.42 -54.94,57.37 -23.76,13.01 -49.35,19.49 -76.79,19.49 -29.79,0 -56.33,-7.21 -79.79,-21.55 -23.39,-14.34 -41.18,-33.9 -53.25,-58.76 -12.06,-24.79 -18.09,-51.04 -18.09,-78.77zm43.24 0.73c0,38.02 10.23,67.95 30.67,89.79 20.45,21.84 46.11,32.8 77,32.8 31.48,0 57.29,-11.03 77.67,-33.1 20.29,-22.06 30.45,-53.4 30.45,-93.99 0,-25.67 -4.34,-48.1 -13.02,-67.22 -8.68,-19.12 -21.4,-33.98 -38.1,-44.49 -16.77,-10.52 -35.52,-15.81 -56.33,-15.81 -29.57,0 -55.01,10.15 -76.34,30.45 -21.33,20.3 -32,54.13 -32,101.57z"/>
    <polygon id="7" points="3074.5,1090.28 3074.5,774.33 3117.46,774.33 3283.22,1022.32 3283.22,774.33 3323.38,774.33 3323.38,1090.28 3280.43,1090.28 3114.66,842.29 3114.66,1090.28 "/>
    <path d="M710.98 705.07l0 -133.85 -121.79 -182.1 50.3 0 62.44 95.61c11.62,17.73 22.43,35.45 32.29,53.17 9.64,-16.55 21.33,-35.08 34.93,-55.67l61.19 -93.11 48.76 0 -126.2 182.1 0 133.85 -41.92 0z"/>
    <path id="1" d="M903.44 551.29c0,-52.37 14.12,-93.41 42.29,-123.04 28.17,-29.64 64.5,-44.43 109.07,-44.43 29.2,0 55.45,6.99 78.91,20.89 23.39,13.9 41.26,33.31 53.54,58.25 12.28,24.86 18.46,53.1 18.46,84.65 0,31.99 -6.47,60.68 -19.41,85.9 -12.95,25.3 -31.26,44.42 -54.94,57.37 -23.76,13.01 -49.35,19.49 -76.79,19.49 -29.79,0 -56.33,-7.21 -79.79,-21.55 -23.39,-14.34 -41.18,-33.9 -53.25,-58.76 -12.06,-24.79 -18.09,-51.04 -18.09,-78.77zm43.24 0.73c0,38.02 10.23,67.95 30.67,89.79 20.45,21.84 46.11,32.8 77,32.8 31.48,0 57.29,-11.03 77.67,-33.1 20.29,-22.06 30.45,-53.4 30.45,-93.99 0,-25.67 -4.34,-48.1 -13.02,-67.22 -8.68,-19.12 -21.4,-33.98 -38.1,-44.49 -16.77,-10.52 -35.52,-15.81 -56.33,-15.81 -29.57,0 -55.01,10.15 -76.34,30.45 -21.33,20.3 -32,54.13 -32,101.57z"/>
    <path id="2" d="M1466.43 389.11l41.92 0 0 182.47c0,31.77 -3.61,57 -10.74,75.68 -7.21,18.61 -20.15,33.83 -38.83,45.52 -18.76,11.7 -43.25,17.58 -73.7,17.58 -29.49,0 -53.69,-5.08 -72.44,-15.3 -18.83,-10.23 -32.21,-24.93 -40.23,-44.27 -8.02,-19.34 -12.06,-45.74 -12.06,-79.21l0 -182.47 41.92 0 0 182.39c0,27.44 2.57,47.73 7.65,60.68 5.07,13.02 13.75,23.09 26.18,30.08 12.36,7.06 27.51,10.59 45.38,10.59 30.59,0 52.44,-6.98 65.46,-20.88 13.01,-13.97 19.49,-40.75 19.49,-80.46l0 -182.39z"/>
    <path id="3" d="M1579.03 705.07l0 -315.95 140.03 0c28.17,0 49.57,2.87 64.2,8.53 14.64,5.67 26.33,15.67 35.08,30.01 8.76,14.34 13.09,30.22 13.09,47.58 0,22.43 -7.28,41.33 -21.77,56.7 -14.49,15.37 -36.84,25.08 -67.14,29.27 11.11,5.3 19.49,10.59 25.23,15.73 12.21,11.18 23.76,25.23 34.56,42.07l54.65 86.05 -52.22 0 -41.77 -65.75c-12.14,-19.05 -22.21,-33.54 -30.08,-43.61 -7.94,-10.08 -15,-17.06 -21.25,-21.11 -6.18,-3.97 -12.58,-6.76 -19.05,-8.39 -4.71,-0.95 -12.42,-1.47 -23.24,-1.47l-48.39 0 0 140.32 -41.92 0zm41.92 -176.51l89.73 0c19.12,0 33.98,-1.99 44.71,-5.96 10.74,-3.9 18.9,-10.22 24.42,-18.97 5.59,-8.68 8.39,-18.1 8.39,-28.32 0,-14.93 -5.37,-27.29 -16.18,-36.92 -10.81,-9.64 -27.87,-14.42 -51.19,-14.42l-99.87 0 0 104.58z"/>
    <path fill="white" fill-rule="nonzero" d="M1296.88 1241.15c0,2.97 0.95,5.39 2.88,7.33 1.93,1.91 4.23,2.87 6.91,2.87 2.86,0 5.2,-1.1 7.03,-3.31 1.82,-2.21 2.74,-5.02 2.74,-8.48 0,-8.36 -0.75,-13.38 -2.24,-15 -1.99,-2.36 -7.55,-3.53 -16.65,-3.53l-0.66 0 0 20.13zm-10.76 -20.13c-3.43,0 -6.57,1.42 -9.37,4.24 -2.81,2.85 -4.23,6.13 -4.23,9.93l0 62.34 -9.95 0 0 -60.4c0,-8.92 1.99,-16.04 6.01,-21.33 4.34,-4.46 9.66,-6.69 16.03,-6.69l23.76 0c11.98,0 17.98,10.5 17.98,31.45 0,6.43 4.34,9.71 13,9.86l0 12.28c-3.98,-0.05 -7.28,-0.61 -9.91,-1.67 -2.17,-1.32 -4.62,-4.41 -7.28,-9.27l-0.43 1.3c-2.35,7.04 -7.11,10.56 -14.26,10.56 -5.55,0 -10.22,-2.23 -13.97,-6.69 -4.5,-4.44 -6.74,-10.56 -6.74,-18.39l0 -17.53 -0.62 0z"/>
    <path fill="white" fill-rule="nonzero" id="1" d="M1357.78 1250.42c3.53,0 5.93,-0.83 7.2,-2.48 1.28,-1.67 1.9,-4.66 1.9,-9.02l0 -18.09 10.57 0 0 18.09c0,4.59 0.75,7.65 2.22,9.12 1.47,1.5 4.31,2.28 8.47,2.38l0 12.28 -6.2 -0.3 -3.34 -0.59 -2.55 -1.5 -3.65 -3.46c-3.96,3.9 -7.69,5.84 -11.17,5.84l-24.36 0 0 -12.28 20.89 0zm-4.69 26.65c1.87,0 3.55,0.86 5.02,2.57 1.47,1.71 2.22,3.7 2.22,5.96 0,1.96 -0.68,3.85 -2.03,5.69 -1.37,1.81 -2.82,2.72 -4.41,2.72 -2.51,0 -4.46,-0.81 -5.85,-2.45 -1.41,-1.62 -2.09,-3.95 -2.09,-6.96 0,-1.77 0.78,-3.46 2.36,-5.1 1.57,-1.62 3.17,-2.43 4.78,-2.43zm17.81 0c1.91,0 3.59,0.86 5.06,2.62 1.49,1.74 2.22,3.7 2.22,5.91 0,1.96 -0.66,3.85 -2.03,5.69 -1.35,1.81 -2.82,2.72 -4.39,2.72 -2.55,0 -4.54,-0.81 -5.93,-2.45 -1.39,-1.62 -2.1,-3.95 -2.1,-6.96 0,-1.87 0.79,-3.58 2.35,-5.18 1.55,-1.57 3.17,-2.35 4.83,-2.35z"/>
    <path fill="white" fill-rule="nonzero" id="2" d="M1405.15 1236.69c0,10.59 3.63,15.89 10.88,15.89 7.07,0 10.62,-5.3 10.62,-15.89 0,-10.44 -3.55,-15.67 -10.62,-15.67 -7.25,0 -10.88,5.22 -10.88,15.67zm40.75 26.01c-4,-0.1 -6.9,-0.74 -8.68,-1.91 -1.78,-1.18 -3.46,-3.41 -5.03,-6.72l-0.54 1.01c-3.3,6.47 -8.48,9.7 -15.55,9.7 -2.2,0 -5,-1.08 -8.4,-3.23 -2.67,-1.91 -4.77,-4.1 -6.3,-6.55l-0.85 -1.3 -0.31 1.67c-0.77,4.78 -6.24,7.23 -16.4,7.33l0 -12.28c6.36,-0.05 10.12,-0.88 11.3,-2.52 0.47,-0.61 0.74,-1.77 0.79,-3.43 0.08,-2.3 0.13,-5.27 0.13,-8.92 0,-6.89 1.74,-13.09 5.22,-18.61 3.31,-5.2 8.13,-7.82 14.45,-7.82 6.41,0 11.34,2.65 14.82,7.9 3.53,5.32 5.28,11.89 5.28,19.69 0,2.2 0.02,3.85 0.08,4.93 0.06,1.08 0.23,2.31 0.5,3.65 0.25,1.38 0.7,2.4 1.35,3.09 0.66,0.71 1.53,1.22 2.61,1.54 0.9,0.24 2.74,0.42 5.53,0.52l0 12.28z"/>
    <path fill="white" fill-rule="nonzero" id="3" d="M1520.12 1221.47l-0.13 0c-3.44,0 -7.52,2.99 -12.27,8.97 -3.61,4.65 -7.24,11.3 -10.92,19.98l23.67 0c4.88,0 7.3,-4.71 7.3,-14.07 0,-5.9 -1.3,-10.39 -3.94,-13.51 -0.58,-0.49 -1.8,-0.93 -3.71,-1.37zm-64.93 28.95c5.87,0 8.81,-3.7 8.81,-11.05l0 -18.53 10.2 0 0 17.08c0,8.33 4,12.5 12.02,12.5l0.5 0 0.1 -0.44c4.27,-13.21 9.12,-23.34 14.6,-30.37 5.4,-6.99 11.13,-10.5 17.12,-10.5 2.8,0 5.72,1.08 8.81,3.24 7.11,4.98 10.67,13.09 10.67,24.34 0,3.6 -0.57,8.16 -1.76,13.73l10.64 0 0 12.28 -58.32 0c-4.16,0 -7.55,-1.01 -10.14,-2.99 -2.59,-1.99 -4.64,-4.9 -6.13,-8.73l-0.67 0.93c-4.66,7.18 -9.8,10.79 -15.42,10.79l-13.37 0 0 -12.28 12.33 0z"/>
    <path fill="white" fill-rule="nonzero" id="4" d="M1579.29 1240.93c0,5.51 -1.64,10.52 -4.94,15 -3.27,4.51 -7.11,6.77 -11.52,6.77l-18.22 0 0 -12.28 14.57 0c4.09,0 6.88,-1.25 8.38,-3.75l0 -0.07 0.06 0c0.6,-1.22 0.91,-3.8 0.91,-7.67l0 -18.09 10.76 0 0 20.1zm-24.23 -52.78c1.91,0 3.59,0.85 5.04,2.57 1.45,1.71 2.18,3.73 2.18,5.96 0,1.96 -0.66,3.87 -2.03,5.69 -1.35,1.81 -2.82,2.72 -4.39,2.72 -2.51,0 -4.48,-0.81 -5.87,-2.45 -1.39,-1.62 -2.1,-3.95 -2.1,-6.96 0,-1.77 0.79,-3.46 2.37,-5.1 1.57,-1.62 3.19,-2.42 4.81,-2.42zm17.79 0c1.91,0 3.59,0.85 5.08,2.62 1.47,1.74 2.23,3.7 2.23,5.91 0,1.96 -0.69,3.87 -2.06,5.69 -1.34,1.81 -2.82,2.72 -4.39,2.72 -2.55,0 -4.52,-0.81 -5.93,-2.45 -1.39,-1.62 -2.1,-3.95 -2.1,-6.96 0,-1.87 0.79,-3.58 2.34,-5.18 1.56,-1.57 3.17,-2.35 4.83,-2.35z"/>
    <path fill="white" fill-rule="nonzero" id="5" d="M1684.6 1261.11c0,10.59 -2.99,19.61 -8.94,27.09 -5.58,6.23 -12.15,9.34 -19.67,9.34l-17.98 0c-7.08,0 -13.43,-3.56 -19.01,-10.64 -5.55,-7.08 -8.31,-15.2 -8.31,-24.34l0 -27.87 10.2 0 0 29.74c0,5.27 1.8,10.07 5.39,14.44 3.65,4.41 8.33,6.6 14.04,6.6l14.88 0c4.93,0 9.37,-1.96 13.31,-5.88 3.92,-3.92 5.88,-8.97 5.88,-15.15l0 -43.59 10.2 0 0 40.28zm-28.68 -60.89c0,1.96 -0.66,3.87 -2.01,5.74 -1.32,1.86 -2.75,2.82 -4.31,2.82 -2.35,0 -4.27,-0.76 -5.76,-2.28 -1.49,-1.5 -2.24,-3.58 -2.24,-6.2 0,-2.3 0.7,-4.32 2.12,-6.03 1.43,-1.74 3.11,-2.6 5.03,-2.6 1.91,0 3.59,0.86 5.01,2.6 1.43,1.71 2.16,3.7 2.16,5.96z"/>
    <path fill="white" fill-rule="nonzero" id="6" d="M1710.41 1236.35c0,2.08 0.04,3.73 0.12,4.88 0.08,1.15 0.27,2.38 0.54,3.7 0.29,1.3 0.77,2.33 1.43,3.09 0.66,0.73 1.55,1.28 2.65,1.59 0.68,0.19 1.37,0.36 2.05,0.49 0.71,0.1 1.25,0.17 1.68,0.2 0.41,0.02 1.16,0.05 2.17,0.07 1.04,0.02 1.87,0.05 2.47,0.05l0 12.28c-9.64,-0.05 -16.21,-2.23 -19.74,-6.55 -2.55,-3.21 -3.83,-7.87 -3.83,-14l0 -64.5 10.45 0 0 58.69z"/>
    <path fill="white" fill-rule="nonzero" id="7" d="M1749.69 1277.56c1.7,0 3.34,0.79 4.89,2.38 1.56,1.57 2.35,3.31 2.35,5.18 0,2.38 -0.6,4.56 -1.82,6.49 -1.22,1.94 -2.74,2.92 -4.56,2.92 -2.59,0 -4.58,-0.81 -5.97,-2.43 -1.41,-1.59 -2.1,-3.92 -2.1,-6.98 0,-1.79 0.79,-3.48 2.38,-5.1 1.62,-1.64 3.22,-2.45 4.83,-2.45zm-8.19 -27.14c3.53,0 5.94,-0.83 7.2,-2.48 1.28,-1.67 1.91,-4.66 1.91,-9.02l0 -18.09 10.57 0 0 18.09c0,4.59 0.75,7.65 2.22,9.12 1.47,1.5 4.31,2.28 8.48,2.38l0 12.28 -6.2 -0.3 -3.34 -0.59 -2.55 -1.5 -3.65 -3.46c-3.96,3.9 -7.69,5.84 -11.17,5.84l-24.36 0 0 -12.28 20.89 0z"/>
    <path fill="white" fill-rule="nonzero" id="8" d="M1789.18 1250.42c3.53,0 5.94,-0.83 7.2,-2.48 1.28,-1.67 1.91,-4.66 1.91,-9.02l0 -18.09 10.57 0 0 18.09c0,4.59 0.75,7.65 2.22,9.12 1.47,1.5 4.31,2.28 8.48,2.38l0 12.28 -6.2 -0.3 -3.34 -0.59 -2.55 -1.5 -3.65 -3.46c-3.96,3.9 -7.69,5.84 -11.17,5.84l-24.36 0 0 -12.28 20.89 0zm-4.69 26.65c1.87,0 3.55,0.86 5.02,2.57 1.47,1.71 2.22,3.7 2.22,5.96 0,1.96 -0.68,3.85 -2.03,5.69 -1.37,1.81 -2.82,2.72 -4.41,2.72 -2.51,0 -4.46,-0.81 -5.84,-2.45 -1.41,-1.62 -2.1,-3.95 -2.1,-6.96 0,-1.77 0.78,-3.46 2.36,-5.1 1.57,-1.62 3.17,-2.43 4.78,-2.43zm17.81 0c1.91,0 3.59,0.86 5.06,2.62 1.49,1.74 2.22,3.7 2.22,5.91 0,1.96 -0.67,3.85 -2.03,5.69 -1.35,1.81 -2.82,2.72 -4.39,2.72 -2.55,0 -4.54,-0.81 -5.93,-2.45 -1.39,-1.62 -2.1,-3.95 -2.1,-6.96 0,-1.87 0.79,-3.58 2.35,-5.18 1.55,-1.57 3.17,-2.35 4.83,-2.35z"/>
    <path fill="white" fill-rule="nonzero" id="9" d="M1836.85 1250.42c3.53,0 5.94,-0.83 7.2,-2.48 1.28,-1.67 1.91,-4.66 1.91,-9.02l0 -18.09 10.57 0 0 18.09c0,4.59 0.75,7.65 2.22,9.12 1.47,1.5 4.31,2.28 8.48,2.38l0 12.28 -6.2 -0.3 -3.34 -0.59 -2.55 -1.5 -3.65 -3.46c-3.96,3.9 -7.69,5.84 -11.17,5.84l-24.36 0 0 -12.28 20.89 0zm-6.2 -60.77c1.91,0 3.59,0.88 5.04,2.62 1.47,1.74 2.2,3.73 2.2,5.93 0,1.96 -0.69,3.85 -2.03,5.67 -1.37,1.81 -2.84,2.75 -4.41,2.75 -2.51,0 -4.46,-0.83 -5.87,-2.45 -1.39,-1.62 -2.09,-3.95 -2.09,-6.96 0,-1.76 0.78,-3.48 2.38,-5.1 1.57,-1.64 3.17,-2.45 4.78,-2.45zm17.79 0c1.91,0 3.61,0.88 5.08,2.62 1.47,1.74 2.22,3.73 2.22,5.93 0,1.96 -0.69,3.85 -2.03,5.67 -1.37,1.81 -2.82,2.75 -4.41,2.75 -2.55,0 -4.52,-0.83 -5.91,-2.45 -1.41,-1.62 -2.1,-3.95 -2.1,-6.96 0,-1.86 0.77,-3.6 2.35,-5.17 1.55,-1.59 3.15,-2.38 4.81,-2.38z"/>
    <path fill="white" fill-rule="nonzero" id="10" d="M1948.74 1254.74c-4.19,5.59 -9.04,8.39 -14.59,8.39 -5.06,0 -9.99,-2.85 -14.8,-8.53 -4.83,5.69 -10.05,8.53 -15.67,8.53 -5.39,0 -9.83,-2.85 -13.31,-8.53 -1.14,1.71 -2.12,3.09 -2.94,4.09 -0.83,1.01 -2.05,1.96 -3.65,2.87 -1.59,0.91 -3.34,1.34 -5.24,1.34l-0.06 0 -15.61 -0.19 0 -12.28 10.26 0c4.46,0 7.53,-0.86 9.2,-2.6 1.68,-1.71 2.53,-5.1 2.53,-10.12l0 -16.87 10.14 0 0 16.72c0,3.31 0.85,6.35 2.55,9.09 1.69,2.75 3.75,4.12 6.2,4.12 6.92,0 10.39,-4.19 10.39,-12.55l0 -17.38 10.26 0 0 17.16c0,3.26 0.97,6.2 2.94,8.83 1.96,2.65 4.22,3.95 6.82,3.95 3.21,0 5.6,-1.08 7.21,-3.26 1.59,-2.18 2.38,-5.27 2.38,-9.29l0 -17.38 10.39 0 0 20.54c0,4.63 2.81,7.55 8.45,8.76l0.04 0 4.81 0.29 0 12.28 -4.13 -0.3c-6.03,-0.29 -10.9,-2.84 -14.57,-7.67zm-24.81 -62.42c1.43,-1.74 3.11,-2.6 5,-2.6 1.91,0 3.6,0.88 5.08,2.62 1.47,1.74 2.22,3.73 2.22,5.93 0,2.28 -0.73,4.29 -2.18,5.96 -1.47,1.67 -3.17,2.5 -5.1,2.5 -1.95,0 -3.63,-0.83 -5.06,-2.5 -1.41,-1.67 -2.12,-3.67 -2.12,-5.96 0,-2.25 0.7,-4.24 2.16,-5.96zm-8.81 0c1.47,1.72 2.22,3.71 2.22,5.96 0,2.26 -0.72,4.22 -2.19,5.91 -1.45,1.71 -3.13,2.55 -5.04,2.55 -1.93,0 -3.61,-0.83 -4.99,-2.5 -1.41,-1.67 -2.1,-3.67 -2.1,-5.96 0,-2.25 0.71,-4.24 2.16,-5.96 1.43,-1.74 3.06,-2.6 4.93,-2.6 1.87,0 3.54,0.85 5.01,2.6zm9 -20.98c1.47,1.71 2.22,3.7 2.22,5.96 0,2.26 -0.75,4.24 -2.22,5.96 -1.5,1.74 -3.15,2.6 -5.02,2.6 -1.9,0 -3.56,-0.86 -4.97,-2.55 -1.43,-1.69 -2.14,-3.7 -2.14,-6 0,-2.26 0.72,-4.24 2.15,-5.96 1.43,-1.71 3.09,-2.57 4.96,-2.57 1.87,0 3.52,0.86 5.02,2.57z"/>
    <path fill="white" fill-rule="nonzero" id="11" d="M1999.82 1240.93c0,5.51 -1.64,10.52 -4.94,15 -3.27,4.51 -7.11,6.77 -11.52,6.77l-18.22 0 0 -12.28 14.57 0c4.09,0 6.88,-1.25 8.38,-3.75l0 -0.07 0.06 0c0.6,-1.22 0.91,-3.8 0.91,-7.67l0 -18.09 10.76 0 0 20.1zm-4.02 36.33c1.91,0 3.61,0.88 5.08,2.6 1.47,1.71 2.22,3.68 2.22,5.88 0,2.3 -0.72,4.29 -2.19,6 -1.45,1.69 -3.15,2.55 -5.1,2.55 -1.92,0 -3.63,-0.86 -5.03,-2.55 -1.41,-1.71 -2.11,-3.7 -2.11,-6 0,-2.26 0.7,-4.22 2.11,-5.93 1.41,-1.69 3.11,-2.55 5.03,-2.55zm-13.79 2.55c1.47,1.71 2.2,3.67 2.2,5.93 0,2.26 -0.75,4.24 -2.22,5.96 -1.5,1.74 -3.15,2.6 -5.02,2.6 -1.94,0 -3.6,-0.83 -5.01,-2.53 -1.39,-1.67 -2.1,-3.67 -2.1,-6.03 0,-2.26 0.71,-4.22 2.14,-5.93 1.4,-1.69 3.06,-2.55 4.97,-2.55 1.91,0 3.59,0.85 5.04,2.55zm8.95 20.94c1.5,1.74 2.23,3.73 2.23,5.98 0,2.23 -0.73,4.22 -2.23,5.96 -1.47,1.72 -3.13,2.57 -4.99,2.57 -1.95,0 -3.63,-0.83 -5.01,-2.5 -1.39,-1.69 -2.1,-3.7 -2.1,-6.03 0,-2.25 0.73,-4.24 2.16,-5.98 1.43,-1.72 3.09,-2.57 4.95,-2.57 1.84,0 3.52,0.85 4.99,2.57z"/>
    <path fill="white" fill-rule="nonzero" id="12" d="M2067.64 1238.29c0,-6.33 2,-11.89 5.94,-16.67 3.93,-4.78 8.58,-7.18 13.86,-7.18l13.62 0 0.54 11.28 -13.67 0c-4.12,0 -7.21,2.42 -9.22,7.25l-0.06 0.07c-0.97,4.12 -1.47,9.41 -1.47,15.86l0 0.79 0.68 0c10.25,0 17.21,1.05 20.88,3.16 3.94,2.5 5.9,7.5 5.9,15.03 0,5.93 -0.75,10.62 -2.19,14.07l-0.06 0.07c-0.85,3.97 -2.97,7.84 -6.36,11.62 -5.43,6.13 -11.94,9.19 -19.51,9.19l-17.98 0c-7.25,0 -13.6,-3.5 -19.07,-10.54 -5.31,-6.86 -7.96,-15 -7.96,-24.42l0 -27.5 9.66 0 0 29.29c0,6.28 2.32,11.72 6.98,16.38 3.86,3.22 8.08,4.81 12.69,4.81l15.19 0c4.17,0 8.19,-1.64 12.09,-4.95 4.25,-4.32 6.36,-8.9 6.36,-13.8 0,-5.02 -1.62,-8.16 -4.85,-9.39 -3.15,-1.15 -10.49,-1.74 -22,-1.74l0 -22.68z"/>
    <path fill="white" fill-rule="nonzero" id="13" d="M2130.44 1236.35c0,2.08 0.04,3.73 0.13,4.88 0.08,1.15 0.27,2.38 0.54,3.7 0.29,1.3 0.77,2.33 1.43,3.09 0.66,0.73 1.55,1.28 2.65,1.59 0.68,0.19 1.37,0.36 2.05,0.49 0.7,0.1 1.25,0.17 1.68,0.2 0.41,0.02 1.16,0.05 2.18,0.07 1.03,0.02 1.87,0.05 2.47,0.05l0 12.28c-9.64,-0.05 -16.21,-2.23 -19.73,-6.55 -2.55,-3.21 -3.84,-7.87 -3.84,-14l0 -64.5 10.45 0 0 58.69z"/>
    <path fill="white" fill-rule="nonzero" id="14" d="M2151.03 1230.73c0,-5.98 1.74,-11.11 5.22,-15.37 3.48,-4.27 7.71,-6.4 12.69,-6.4 4.96,0 9.52,2.36 13.73,7.04l0.84 -1.08 -7.09 -8.6 7.9 -8.33c18.7,21.5 28.04,37.26 28.04,47.27 0,3.26 -0.93,6.86 -2.8,10.84 -4.25,8.09 -9.33,12.13 -15.23,12.13 -5.99,0 -13.99,-3.48 -23.98,-10.47l-0.31 -0.15 -0.38 0.15c-3.87,2.43 -6.96,3.8 -9.29,4.07l-7.15 0.59 -12.27 0.3 0 -12.28 16.81 0c-2.8,-4.36 -4.6,-7.87 -5.45,-10.49l-1.1 -4.32 -0.18 -4.88zm50.58 15.52l0 -0.22c0,-5.83 -5.23,-15.05 -15.72,-27.65l-0.91 1.08c2.3,3.02 3.47,7.33 3.47,12.92 0,8.53 -2.24,14.24 -6.69,17.18l-0.96 0.64c4.52,3.26 8.56,4.88 12.09,4.88 3.07,0 5.52,-1.22 7.34,-3.65l0.06 -0.15 0 -0.07c0.56,-1.5 1.02,-3.14 1.33,-4.96zm-23.08 -14.58c0,-3.21 -1.05,-5.96 -3.19,-8.26 -2.12,-2.31 -4.6,-3.43 -7.44,-3.43l-0.05 0c-4.75,0.86 -7.23,4.41 -7.48,10.69l0 0.07c0,6.23 3.24,10.84 9.73,13.85l0.25 0.15 0.22 -0.15c5.31,-2.63 7.96,-6.94 7.96,-12.92z"/>
    <path fill="white" fill-rule="nonzero" id="15" d="M2267.63 1252.58c2.92,0 5.62,-1.3 8.08,-3.9 2.47,-2.57 3.71,-5.51 3.71,-8.82 0,-2.72 -0.72,-5.47 -2.19,-8.19l-4.91 -5.81c-0.81,-0.95 -1.76,-2.11 -2.86,-3.41 -1.08,-1.32 -1.78,-2.16 -2.05,-2.48l-0.43 0.56c-4.41,4.78 -7.25,8.43 -8.56,10.91 -1.32,2.55 -2.01,5.15 -2.01,7.85 0,2.77 0.93,5.61 2.8,8.53 1.95,3.16 4.76,4.76 8.43,4.76zm21.09 -5.25c-4.42,11.35 -11.51,17.02 -21.25,17.02 -5.84,0 -10.9,-2.5 -15.19,-7.48 -4.25,-4.93 -6.36,-11.03 -6.36,-18.31 0,-4.78 1.45,-9.73 4.37,-14.85 1.25,-2.35 4.41,-6.55 9.54,-12.58l-3.42 -4.73 7.11 -8.41 34.43 43.32c3.25,3.97 5.43,6.5 6.57,7.6l0.06 0 0.06 0.08c1.58,0.85 3.94,1.34 7.09,1.44l0 12.28c-5.5,-0.05 -8.92,-0.86 -10.27,-2.45l-0.06 0c-0.64,-0.29 -4.87,-4.58 -12.68,-12.92z"/>
    <path fill="white" fill-rule="nonzero" id="16" d="M2331.24 1189.87c1.69,0 3.34,0.79 4.89,2.38 1.55,1.57 2.34,3.29 2.34,5.18 0,2.38 -0.6,4.56 -1.82,6.49 -1.22,1.94 -2.74,2.89 -4.56,2.89 -2.59,0 -4.58,-0.78 -5.97,-2.4 -1.41,-1.59 -2.1,-3.92 -2.1,-6.98 0,-1.79 0.79,-3.48 2.39,-5.1 1.59,-1.64 3.21,-2.45 4.83,-2.45zm11.73 51.07c0,5.51 -1.64,10.52 -4.94,15 -3.27,4.51 -7.11,6.77 -11.52,6.77l-18.22 0 0 -12.28 14.57 0c4.09,0 6.88,-1.25 8.38,-3.75l0 -0.07 0.06 0c0.6,-1.22 0.91,-3.8 0.91,-7.67l0 -18.09 10.76 0 0 20.1z"/>
    <path fill="white" fill-rule="nonzero" id="17" d="M2369.06 1236.35c0,2.08 0.04,3.73 0.13,4.88 0.08,1.15 0.27,2.38 0.54,3.7 0.29,1.3 0.77,2.33 1.43,3.09 0.66,0.73 1.55,1.28 2.65,1.59 0.68,0.19 1.37,0.36 2.05,0.49 0.71,0.1 1.25,0.17 1.68,0.2 0.41,0.02 1.16,0.05 2.17,0.07 1.04,0.02 1.87,0.05 2.47,0.05l0 12.28c-9.64,-0.05 -16.21,-2.23 -19.74,-6.55 -2.55,-3.21 -3.84,-7.87 -3.84,-14l0 -64.5 10.45 0 0 58.69z"/>
    <path fill="white" fill-rule="nonzero" id="18" d="M2411.4 1252.58c3.68,0 6.4,-1.42 8.17,-4.24 1.76,-2.82 2.63,-6.72 2.63,-11.64 0,-4.93 -0.87,-8.78 -2.63,-11.52 -1.77,-2.75 -4.48,-4.14 -8.17,-4.14 -3.69,0 -6.43,1.4 -8.21,4.14 -1.78,2.75 -2.67,6.6 -2.67,11.52 0,4.98 0.9,8.88 2.66,11.67 1.76,2.79 4.49,4.22 8.23,4.22zm19.42 -15.3c0,8.19 -1.68,14.81 -5.03,19.88 -3.36,5.07 -8.17,7.62 -14.45,7.62 -5.56,0 -9.87,-1.83 -12.94,-5.47 -3.82,2.21 -10.18,3.34 -19.14,3.39l0 -12.28c6.33,-0.05 10.05,-0.88 11.24,-2.52l0 -0.08c0.48,-0.56 0.72,-4.19 0.72,-10.84l0 -1.44c0,-6.99 1.76,-13.19 5.29,-18.61 3.4,-5.2 8.29,-7.82 14.63,-7.82 6.2,0 11.03,2.67 14.49,7.97 3.46,5.32 5.18,12.06 5.18,20.2z"/>
    <path fill="white" fill-rule="nonzero" id="19" d="M2456.57 1236.35c0,2.08 0.04,3.73 0.13,4.88 0.08,1.15 0.27,2.38 0.54,3.7 0.29,1.3 0.77,2.33 1.43,3.09 0.66,0.73 1.55,1.28 2.65,1.59 0.68,0.19 1.37,0.36 2.05,0.49 0.71,0.1 1.25,0.17 1.68,0.2 0.42,0.02 1.17,0.05 2.18,0.07 1.04,0.02 1.87,0.05 2.47,0.05l0 12.28c-9.64,-0.05 -16.21,-2.23 -19.74,-6.55 -2.55,-3.21 -3.84,-7.87 -3.84,-14l0 -64.5 10.45 0 0 58.69z"/>
    <path fill="white" fill-rule="nonzero" id="20" d="M2557.82 1241.37c0,6.55 -1.82,11.72 -5.45,15.47 -3.61,3.75 -8.42,5.64 -14.41,5.64 -4.83,0 -9.8,-2.62 -14.95,-7.82 -5.14,5.12 -10.14,7.67 -15,7.67 -4.29,0 -9.02,-2.52 -14.2,-7.55l-0.56 -0.42c-1.85,2.77 -3.76,4.86 -5.71,6.25 -1.94,1.37 -4.54,2.08 -7.77,2.08l-13.24 0 0 -12.28 13.18 0c3.24,0 5.58,-1.01 6.98,-3.01 1.41,-2.01 2.14,-5.1 2.14,-9.27l0 -17.31 9.89 0 0 17.16c0,3.63 0.87,6.67 2.59,9.12 1.73,2.45 4,3.65 6.88,3.65 3.32,0 5.83,-1.08 7.51,-3.26 1.68,-2.18 2.53,-5.27 2.53,-9.29l0 -17.38 10.01 0 0 17.8c0,3.65 0.89,6.57 2.67,8.8 1.79,2.23 4.15,3.34 7.11,3.34 3.15,0 5.56,-1.03 7.22,-3.09 1.66,-2.06 2.48,-5 2.48,-8.82l0 -18.02 10.1 0 0 20.54z"/>
    <path fill="white" fill-rule="nonzero" id="21" d="M2668.42 1262.7l-10.76 0 0.56 7.37c0,7.62 -2.57,14.12 -7.71,19.47 -4.97,5.32 -10.69,7.99 -17.12,7.99l-18.1 0c-8.62,0 -15.69,-3.92 -21.21,-11.72 -4.66,-7.43 -6.98,-16.55 -6.98,-27.36l0 -23.78 10.57 0 0 29.3c0,5 1.45,9.64 4.38,13.95l0 0.07 0.06 0c3.87,4.98 9.16,7.45 15.83,7.45l14.89 0c3.98,0 7.48,-1.35 10.51,-4.1 2.97,-2.72 4.44,-6.74 4.44,-12.06 0,-2.97 -1.97,-4.83 -5.89,-5.59 -3.25,-0.68 -9.28,-1 -18.1,-1l-0.85 -12.28 45.48 0 0 12.28z"/>
    <path fill="white" fill-rule="nonzero" id="22" d="M2756.42 1241.37c0,6.55 -1.83,11.72 -5.46,15.47 -3.61,3.75 -8.42,5.64 -14.41,5.64 -4.83,0 -9.8,-2.62 -14.95,-7.82 -5.14,5.12 -10.14,7.67 -15.01,7.67 -4.29,0 -9.02,-2.52 -14.2,-7.55l-0.56 -0.42c-1.84,2.77 -3.75,4.86 -5.7,6.25 -1.95,1.37 -4.54,2.08 -7.77,2.08l-13.25 0 0 -12.28 13.19 0c3.23,0 5.58,-1.01 6.98,-3.01 1.41,-2.01 2.14,-5.1 2.14,-9.27l0 -17.31 9.89 0 0 17.16c0,3.63 0.87,6.67 2.59,9.12 1.73,2.45 4,3.65 6.88,3.65 3.32,0 5.83,-1.08 7.51,-3.26 1.68,-2.18 2.53,-5.27 2.53,-9.29l0 -17.38 10.02 0 0 17.8c0,3.65 0.89,6.57 2.67,8.8 1.79,2.23 4.15,3.34 7.11,3.34 3.15,0 5.55,-1.03 7.21,-3.09 1.66,-2.06 2.49,-5 2.49,-8.82l0 -18.02 10.1 0 0 20.54z"/>
    <path fill="white" fill-rule="nonzero" id="23" d="M2836.99 1262.7c-4.12,0 -9.04,-3.39 -14.76,-10.13 -1.16,2.43 -2.88,4.9 -5.16,7.38 -2.47,1.84 -5.95,2.75 -10.44,2.75l-35.28 0 -1.45 -12.28 36.07 0c4.87,0 7.3,-1.94 7.3,-5.83 0,-2.28 -0.75,-4.24 -2.26,-5.88l-25.63 -32.39 6.86 -8.33 34.68 43.32c3.81,4.63 6.28,7.26 7.4,7.9 1.26,0.76 3.79,1.18 7.6,1.22l0 12.28 -4.93 0z"/>
    <path fill="white" fill-rule="nonzero" id="24" d="M2866.02 1189.16c1.7,0 3.34,0.78 4.89,2.35 1.56,1.59 2.35,3.31 2.35,5.18 0,2.4 -0.6,4.56 -1.82,6.49 -1.22,1.96 -2.74,2.92 -4.56,2.92 -2.59,0 -4.59,-0.81 -5.97,-2.4 -1.41,-1.59 -2.1,-3.95 -2.1,-7.01 0,-1.77 0.79,-3.46 2.39,-5.1 1.59,-1.62 3.21,-2.42 4.83,-2.42zm-5.71 61.26c3.53,0 5.94,-0.83 7.2,-2.48 1.28,-1.67 1.91,-4.66 1.91,-9.02l0 -18.09 10.57 0 0 18.09c0,4.59 0.75,7.65 2.22,9.12 1.47,1.5 4.31,2.28 8.48,2.38l0 12.28 -6.2 -0.3 -3.34 -0.59 -2.55 -1.5 -3.65 -3.46c-3.96,3.9 -7.69,5.84 -11.17,5.84l-24.36 0 0 -12.28 20.89 0z"/>
    <path fill="white" fill-rule="nonzero" id="25" d="M2922.5 1242.65c-0.13,2.75 -0.47,4.88 -1.1,6.45 -0.6,1.54 -1.8,3.73 -3.59,6.57l0.91 1c3.73,-4.16 7.46,-6.25 11.17,-6.25l11.79 0 0 12.28 -8.27 0c-3.15,0 -5.93,1.1 -8.33,3.28 -2.42,2.2 -3.63,5.02 -3.63,8.41l0 0.07 0.19 2.23 2.61 13.51 -10.01 3.58 -2.99 -17.02 -0.25 -2.72c0,-4.71 1.85,-9.56 5.53,-14.58l-0.97 -1.01c-2.76,2.82 -6.18,4.24 -10.26,4.24l-19.55 0 0 -12.28 15.84 0c3.81,0 6.8,-1.3 9,-3.9 0.93,-1.37 1.7,-4.07 2.3,-8.11l1.95 -14.29 10.45 2.16 -2.8 16.3 0 0.07z"/>
    <path fill="white" fill-rule="nonzero" id="26" d="M2970.9 1252.58c3.69,0 6.41,-1.42 8.17,-4.24 1.77,-2.82 2.63,-6.72 2.63,-11.64 0,-4.93 -0.87,-8.78 -2.63,-11.52 -1.76,-2.75 -4.48,-4.14 -8.17,-4.14 -3.68,0 -6.42,1.4 -8.21,4.14 -1.78,2.75 -2.67,6.6 -2.67,11.52 0,4.98 0.89,8.88 2.66,11.67 1.76,2.79 4.49,4.22 8.22,4.22zm19.42 -15.3c0,8.19 -1.68,14.81 -5.03,19.88 -3.36,5.07 -8.17,7.62 -14.45,7.62 -5.56,0 -9.87,-1.83 -12.94,-5.47 -3.82,2.21 -10.18,3.34 -19.14,3.39l0 -12.28c6.32,-0.05 10.05,-0.88 11.24,-2.52l0 -0.08c0.48,-0.56 0.72,-4.19 0.72,-10.84l0 -1.44c0,-6.99 1.76,-13.19 5.29,-18.61 3.4,-5.2 8.29,-7.82 14.63,-7.82 6.2,0 11.03,2.67 14.49,7.97 3.46,5.32 5.18,12.06 5.18,20.2z"/>
    <path fill="white" fill-rule="nonzero" id="27" d="M3032.12 1238.92c0,4.26 0.67,7.23 1.97,8.95 1.33,1.69 3.73,2.55 7.2,2.55l54.12 0c3.45,0 5.7,-0.52 6.8,-1.52l0.06 0c1.69,-1.71 2.55,-5.05 2.55,-9.98l0 -18.09 10.51 0 0 18.09c0,4.36 1.04,7.33 3.13,8.95 2.07,1.59 5.29,2.45 9.62,2.55l0 12.28 -6.56 -0.44 -4.93 -0.79c-2.59,-0.91 -4.69,-2.48 -6.3,-4.68 -3.86,3.95 -7.61,5.91 -11.24,5.91l-61.34 0c-2.92,0 -5.61,-1.08 -8.1,-3.22 -2.51,-2.13 -4.44,-4.85 -5.84,-8.21 -1.39,-3.36 -2.1,-6.79 -2.1,-10.35l0 -20.1 10.44 0 0 18.09zm28.68 -49.27c1.9,0 3.58,0.88 5.03,2.62 1.45,1.74 2.19,3.73 2.19,5.93 0,1.96 -0.68,3.85 -2.05,5.67 -1.35,1.81 -2.82,2.75 -4.4,2.75 -2.51,0 -4.46,-0.83 -5.86,-2.45 -1.39,-1.62 -2.1,-3.95 -2.1,-6.96 0,-1.76 0.79,-3.48 2.36,-5.1 1.6,-1.64 3.19,-2.45 4.82,-2.45zm17.78 0c1.91,0 3.61,0.88 5.08,2.62 1.47,1.74 2.22,3.73 2.22,5.93 0,1.96 -0.68,3.85 -2.03,5.67 -1.37,1.81 -2.82,2.75 -4.41,2.75 -2.55,0 -4.52,-0.83 -5.9,-2.45 -1.41,-1.62 -2.1,-3.95 -2.1,-6.96 0,-1.86 0.77,-3.6 2.32,-5.17 1.58,-1.59 3.17,-2.38 4.83,-2.38z"/>
    <path fill="white" fill-rule="nonzero" id="28" d="M3172.61 1234.19c2.13,3.12 3.22,6.67 3.22,10.69 0,4.12 -1.45,8.16 -4.38,12.13 -3.19,3.8 -7.76,5.69 -13.66,5.69l-33.29 0 0 -12.28 33.29 0c4.85,0 7.28,-1.94 7.28,-5.83 0,-1.77 -0.77,-3.9 -2.3,-6.37l-30.66 -37.93 -2.14 -13.65 45.55 -19.39 1.22 11.79 -34.56 15.15 30.43 40.01z"/>
    <path fill="white" fill-rule="nonzero" id="29" d="M3241.73 1262.7c-5.18,-0.15 -8.95,-2.26 -11.3,-6.33l-1.16 -2.01 0 2.5c0,12.4 -2.97,22.7 -8.92,30.89 -5.51,6.52 -12.15,9.78 -19.92,9.78l-14.53 0 -1.87 -12.09 15.3 0c4.89,0 9.39,-1.99 13.47,-5.96 4.07,-4.07 6.08,-9.09 6.08,-15.08l0 -43.59 10.22 0 0 19.1c0,6.84 4.21,10.35 12.62,10.49l0 12.28z"/>
    <path fill="white" fill-rule="nonzero" id="30" d="M3329.66 1241.37c0,6.55 -1.82,11.72 -5.45,15.47 -3.61,3.75 -8.42,5.64 -14.41,5.64 -4.83,0 -9.81,-2.62 -14.95,-7.82 -5.14,5.12 -10.14,7.67 -15,7.67 -4.29,0 -9.02,-2.52 -14.2,-7.55l-0.56 -0.42c-1.84,2.77 -3.76,4.86 -5.7,6.25 -1.95,1.37 -4.54,2.08 -7.78,2.08l-13.24 0 0 -12.28 13.18 0c3.24,0 5.58,-1.01 6.98,-3.01 1.41,-2.01 2.14,-5.1 2.14,-9.27l0 -17.31 9.89 0 0 17.16c0,3.63 0.87,6.67 2.59,9.12 1.72,2.45 4,3.65 6.88,3.65 3.32,0 5.83,-1.08 7.51,-3.26 1.68,-2.18 2.53,-5.27 2.53,-9.29l0 -17.38 10.01 0 0 17.8c0,3.65 0.89,6.57 2.67,8.8 1.78,2.23 4.14,3.34 7.11,3.34 3.15,0 5.56,-1.03 7.22,-3.09 1.66,-2.06 2.49,-5 2.49,-8.82l0 -18.02 10.1 0 0 20.54zm-26.89 -50.64c1.45,-1.72 3.11,-2.57 5.01,-2.57 1.91,0 3.59,0.85 5.08,2.62 1.47,1.74 2.22,3.7 2.22,5.91 0,2.3 -0.75,4.29 -2.2,5.96 -1.45,1.69 -3.15,2.52 -5.1,2.52 -1.95,0 -3.63,-0.83 -5.03,-2.52 -1.43,-1.67 -2.14,-3.65 -2.14,-5.96 0,-2.23 0.72,-4.24 2.16,-5.96zm-8.81 0c1.5,1.71 2.22,3.73 2.22,5.96 0,2.25 -0.72,4.24 -2.18,5.93 -1.45,1.69 -3.13,2.55 -5.03,2.55 -1.95,0 -3.63,-0.83 -5.02,-2.52 -1.39,-1.67 -2.09,-3.65 -2.09,-5.96 0,-2.23 0.72,-4.24 2.15,-5.96 1.43,-1.72 3.09,-2.57 4.96,-2.57 1.87,0 3.52,0.85 4.99,2.57zm9 -20.96c1.47,1.71 2.23,3.7 2.23,5.96 0,2.26 -0.75,4.24 -2.23,5.96 -1.47,1.71 -3.15,2.57 -5.01,2.57 -1.89,0 -3.56,-0.83 -4.98,-2.55 -1.41,-1.69 -2.12,-3.68 -2.12,-5.98 0,-2.26 0.71,-4.24 2.16,-5.96 1.43,-1.74 3.09,-2.6 4.93,-2.6 1.87,0 3.54,0.86 5.01,2.6z"/>
  </g>
</svg>
