<?xml version="1.0" encoding="UTF-8"?>
<!DOCTYPE svg PUBLIC "-//W3C//DTD SVG 1.1//EN" "http://www.w3.org/Graphics/SVG/1.1/DTD/svg11.dtd">
<!-- Creator: CorelDRAW 2020 (64-Bit) -->
<svg xmlns="http://www.w3.org/2000/svg" xml:space="preserve" width="89.7066mm" height="23.1151mm" version="1.1" shape-rendering="geometricPrecision" text-rendering="geometricPrecision" image-rendering="optimizeQuality" fill-rule="evenodd" clip-rule="evenodd"
viewBox="0 0 5792.41 1492.56"
 xmlns:xlink="http://www.w3.org/1999/xlink"
 xmlns:xodm="http://www.corel.com/coreldraw/odm/2003">
 <g id="Layer_x0020_1">
  <metadata id="CorelCorpID_0Corel-Layer"/>
  <path fill="#718FC8" fill-rule="nonzero" d="M3198.29 1306.83l0 -26.91 162.29 0 0 26.91 -68.85 0 0 177.13 -26.96 0 0 -177.13 -66.48 0zm128.91 177.13l70.69 -204.04 37.18 0 69.39 204.04 -30.1 0 -17.49 -53.91 -82.9 0 -17.76 53.91 -29.02 0zm74.24 -136.04l-18.53 55.65 65.31 0 -18.25 -55.65c-3.14,-10.15 -5.39,-18.51 -6.64,-25.11 -1.26,-6.61 -1.94,-14.04 -1.94,-22.39l-11.25 0c-0.36,8.79 -1.21,16.7 -2.51,23.65 -1.3,7 -3.36,14.96 -6.19,23.85zm161.52 136.04l-26.91 0 0 -204.04 26.91 0 0 48.09c0,10.93 -0.94,19.62 -2.87,26.18 -1.92,6.55 -5.11,12.62 -9.6,18.21l8.38 8.41 86.89 -100.88 36.37 0 -75.4 83.92 88.81 120.11 -35.21 0 -72.4 -99.03 -24.98 27.88 0 71.16zm156.81 0l0 -204.04 82.62 0c18.84,0 33.32,4.42 43.46,13.31 10.09,8.83 15.16,20.44 15.16,34.77 0,13.01 -3.68,23.21 -11.04,30.59 -7.35,7.38 -17.14,11.47 -29.29,12.24l0 11.95c13.23,0.48 24.27,4.76 33.14,12.82 8.92,8.06 13.37,19.23 13.37,33.56 0,11.75 -2.73,21.81 -8.21,30.16 -5.48,8.36 -12.82,14.52 -22.11,18.56 -9.24,4.03 -19.83,6.07 -31.85,6.07l-85.27 0zm26.91 -26.76l54.54 0c11.49,0 20.59,-2.96 27.32,-8.94 6.77,-5.97 10.13,-14.09 10.13,-24.33 0,-10.44 -3.27,-18.51 -9.78,-24.14 -3.27,-2.82 -7.22,-4.95 -11.82,-6.33 -4.59,-1.39 -9.94,-2.43 -15.86,-2.11l-54 2.94 -0.54 62.91zm52.43 -150.37l-52.43 0 0 58.18 52.43 0c10.28,0 18.48,-2.72 24.63,-8.21 6.19,-5.43 9.29,-12.82 9.29,-22.09 0,-9.23 -2.91,-16.17 -8.75,-20.84 -5.83,-4.71 -14.22,-7.04 -25.16,-7.04zm95.95 75.08c-0.18,-15.25 2.15,-29.57 7.04,-42.88 4.84,-13.31 11.53,-24.63 20,-33.85 8.52,-9.27 18.62,-16.51 30.36,-21.71 11.75,-5.19 24.18,-7.72 37.32,-7.53 17.72,-0.29 33.78,4.03 48.18,13.02 14.39,8.93 25.7,21.61 33.91,37.92 8.17,16.32 12.15,34.64 11.89,55.03 0.17,15.3 -2.11,29.59 -6.82,42.94 -4.75,13.3 -11.31,24.62 -19.65,33.89 -8.39,9.33 -18.43,16.56 -30.09,21.81 -11.71,5.19 -24.18,7.72 -37.41,7.53 -13.14,0.19 -25.61,-2.34 -37.36,-7.53 -11.8,-5.25 -21.93,-12.48 -30.37,-21.81 -8.48,-9.27 -15.12,-20.59 -19.96,-33.89 -4.89,-13.35 -7.23,-27.64 -7.04,-42.94zm160.17 0c0,-15.15 -2.6,-28.7 -7.89,-40.65 -5.26,-12 -12.88,-21.42 -22.92,-28.42 -10.05,-6.99 -21.67,-10.44 -34.9,-10.44 -13.23,0 -24.85,3.45 -34.9,10.44 -10,7 -17.62,16.42 -22.83,28.42 -5.2,11.95 -7.85,25.5 -7.85,40.65 0,23.56 5.92,42.69 17.76,57.45 11.84,14.72 27.77,22.1 47.81,22.1 20.09,0 36.06,-7.39 47.9,-22.1 11.89,-14.76 17.81,-33.89 17.81,-57.45zm69.16 -101.99l40.87 0 99.08 168.73 9.6 -7.24c-5.02,-8.16 -8.34,-15.94 -10.09,-23.27 -1.7,-7.33 -2.56,-17.48 -2.56,-30.35l0 -107.87 26.95 0 0 204.04 -33.63 0 -105 -179.56 -9.6 6.8c4.13,8.65 7.04,17.34 8.75,26.13 1.7,8.79 2.56,19.77 2.56,32.92l0 113.7 -26.92 0 0 -204.04zm272.68 100.3c-0.18,-14.33 1.98,-27.88 6.42,-40.75 4.48,-12.88 10.67,-23.95 18.62,-33.22 7.94,-9.32 17.58,-16.66 28.97,-22.15 11.4,-5.44 23.55,-8.16 36.51,-8.16 9.56,0 18.75,1.21 27.54,3.69 8.79,2.47 17.05,6.12 24.63,10.98 7.63,4.81 14.26,11.17 19.91,18.99 5.65,7.82 9.82,16.7 12.42,26.67l-26.91 10.38c-3.54,-11.94 -9.73,-22.24 -18.65,-30.88 -8.25,-8.94 -20.59,-13.36 -37.1,-13.36 -19.06,0 -34.45,7 -46.02,20.99 -11.62,13.99 -17.45,32.83 -17.45,56.53 0,24.48 5.83,44.15 17.49,59.01 11.66,14.81 27,22.24 45.97,22.24 15.52,0 27.72,-3.89 36.55,-11.71 8.84,-7.86 15.61,-19.23 20.23,-34.24l26.15 10.69c-4.98,18.5 -14.67,33.45 -28.98,44.92 -14.31,11.51 -32.29,17.24 -53.96,17.24 -13.99,0.19 -26.87,-2.52 -38.62,-8.11 -11.75,-5.59 -21.53,-13.26 -29.38,-22.97 -7.81,-9.71 -13.91,-21.22 -18.16,-34.43 -4.31,-13.27 -6.37,-27.35 -6.19,-42.35zm198.03 1.69c-0.18,-15.25 2.15,-29.57 7.04,-42.88 4.84,-13.31 11.53,-24.63 20,-33.85 8.52,-9.27 18.62,-16.51 30.37,-21.71 11.75,-5.19 24.18,-7.72 37.32,-7.53 17.72,-0.29 33.78,4.03 48.18,13.02 14.39,8.93 25.7,21.61 33.91,37.92 8.16,16.32 12.15,34.64 11.88,55.03 0.17,15.3 -2.11,29.59 -6.82,42.94 -4.75,13.3 -11.3,24.62 -19.65,33.89 -8.39,9.33 -18.43,16.56 -30.09,21.81 -11.71,5.19 -24.18,7.72 -37.41,7.53 -13.14,0.19 -25.61,-2.34 -37.36,-7.53 -11.8,-5.25 -21.93,-12.48 -30.37,-21.81 -8.48,-9.27 -15.12,-20.59 -19.96,-33.89 -4.89,-13.35 -7.23,-27.64 -7.04,-42.94zm160.17 0c0,-15.15 -2.6,-28.7 -7.89,-40.65 -5.26,-12 -12.88,-21.42 -22.92,-28.42 -10.05,-6.99 -21.67,-10.44 -34.9,-10.44 -13.23,0 -24.85,3.45 -34.89,10.44 -10,7 -17.63,16.42 -22.83,28.42 -5.2,11.95 -7.85,25.5 -7.85,40.65 0,23.56 5.92,42.69 17.76,57.45 11.84,14.72 27.77,22.1 47.81,22.1 20.09,0 36.06,-7.39 47.9,-22.1 11.89,-14.76 17.81,-33.89 17.81,-57.45zm96.08 102.05l-26.92 0 0 -204.04 45.17 0 41.94 116.95c3.05,7.97 5.16,15.88 6.33,23.7 1.12,7.82 1.92,17.87 2.33,30.21l11.3 0c0.36,-8.7 0.68,-15.25 0.99,-19.53 0.32,-4.33 1.08,-9.61 2.33,-15.84 1.21,-6.21 2.96,-12.38 5.25,-18.55l41 -116.95 44.13 0 0 204.04 -26.69 0 0 -105.73c0,-26.47 4.31,-50.85 12.92,-73.15l-11.31 -4.66 -65.44 183.54 -19.06 0 -66.25 -183.54 -11.3 4.66c8.88,22.05 13.28,46.38 13.28,73.15l0 105.73zm227.63 -204.04l76.34 0c19.51,0 34.94,5.68 46.21,17.14 11.25,11.42 16.86,26.42 16.86,45.03 0,18.69 -5.66,33.75 -17,45.17 -11.35,11.46 -26.82,17.14 -46.33,17.14l-49.16 0 0 79.56 -26.92 0 0 -204.04zm71.32 26.91l-44.4 0 0 72.27 44.4 0c12.74,0 22.48,-3.4 29.33,-10.2 6.82,-6.75 10.23,-15.69 10.23,-26.81 0,-10.93 -3.36,-19.53 -10.18,-25.84 -6.77,-6.31 -16.56,-9.42 -29.39,-9.42zm53.78 177.13l70.69 -204.04 37.18 0 69.39 204.04 -30.1 0 -17.5 -53.91 -82.89 0 -17.76 53.91 -29.02 0zm74.24 -136.04l-18.53 55.65 65.31 0 -18.25 -55.65c-3.14,-10.15 -5.39,-18.51 -6.64,-25.11 -1.25,-6.61 -1.93,-14.04 -1.93,-22.39l-11.25 0c-0.36,8.79 -1.21,16.7 -2.51,23.65 -1.3,7 -3.36,14.96 -6.19,23.85zm134.6 -68l40.87 0 99.08 168.73 9.6 -7.24c-5.02,-8.16 -8.34,-15.94 -10.09,-23.27 -1.7,-7.33 -2.56,-17.48 -2.56,-30.35l0 -107.87 26.95 0 0 204.04 -33.63 0 -105 -179.56 -9.6 6.8c4.13,8.65 7.04,17.34 8.75,26.13 1.7,8.79 2.56,19.77 2.56,32.92l0 113.7 -26.91 0 0 -204.04zm264.64 118.66l-68.31 -118.66 32.34 0 31.67 57.45c4.62,8.45 7.85,15.98 9.6,22.59 1.75,6.55 2.69,14.08 2.87,22.54l11.3 0c0.19,-8.45 1.08,-16.03 2.78,-22.78 1.66,-6.7 4.67,-14.28 9.06,-22.59l29.83 -57.21 32.07 0 -66.25 117.54 0 86.5 -26.96 0 0 -85.38zm72.13 85.38l0 -37.84 34.45 0 0 37.84 -34.45 0z"/>
  <path fill="#FEFEFE" fill-rule="nonzero" d="M3.75 1483.28l0 -456.88 160.52 0c65.47,0 118.43,20.77 159,62.43 40.56,41.65 60.9,96.36 60.9,164.11 0,71.34 -20.23,127.57 -60.58,168.68 -40.34,41.11 -94.83,61.66 -163.45,61.66l-156.39 0zm65.25 -59.92l81.57 0c110.06,0 165.09,-56.56 165.09,-169.77 0,-52.1 -13.7,-92.88 -41.11,-122.57 -27.4,-29.58 -67.21,-44.37 -119.52,-44.37l-86.03 0 0 336.71zm737.25 59.92l-323 0 0 -456.88 323 0 0 60.25 -257.75 0 0 130.29 191.19 0 0 59.6 -191.19 0 0 146.82 257.75 0 0 59.92zm37.3 -232.3c-0.43,-32.09 4.78,-62.43 15.56,-91.24 10.87,-28.82 25.88,-53.62 45.13,-74.39 19.25,-20.88 42.64,-37.3 70.26,-49.59 27.62,-12.18 57.09,-18.27 88.53,-18.27 23.16,0 45.46,2.72 66.77,8.27 21.32,5.55 41.33,13.7 59.71,24.58 18.49,10.76 34.58,25.01 48.29,42.52 13.7,17.51 23.82,37.41 30.13,59.71l-65.26 23.27c-8.59,-26.75 -23.6,-49.81 -45.24,-69.17 -20.01,-20.01 -49.91,-29.91 -89.94,-29.91 -46.22,0 -83.52,15.66 -111.58,46.99 -28.17,31.32 -42.31,73.51 -42.31,126.59 0,54.81 14.13,98.86 42.41,132.14 28.28,33.17 65.47,49.81 111.47,49.81 73.48,0 114.79,-34.18 137.68,-102.89l63.41 23.93c-12.07,41.43 -35.57,74.93 -70.26,100.59 -34.69,25.78 -78.3,38.61 -130.83,38.61 -33.93,0.43 -65.14,-5.66 -93.63,-18.16 -28.5,-12.51 -52.21,-29.69 -71.23,-51.44 -18.93,-21.75 -33.72,-47.52 -44.05,-77.1 -10.44,-29.69 -15.44,-61.23 -15.01,-94.83zm513 232.3l0 -456.88 65.25 0 0 456.88 -65.25 0zm153.23 -117.56l62.43 -28.71c9.78,30.45 25.23,54.05 46.22,71.13 20.99,16.96 47.85,25.45 80.58,25.45 30.56,0 54.38,-6.53 71.23,-19.58 16.86,-13.05 25.34,-30.88 25.34,-53.4 0,-19.36 -6.64,-34.58 -19.8,-45.89 -13.16,-11.2 -34.14,-20.01 -63.07,-26.43l-60.8 -13.7c-39.58,-8.48 -69.38,-22.95 -89.39,-43.29 -20.12,-20.44 -30.13,-48.51 -30.13,-84.17 0,-37.95 14.68,-69.17 43.94,-93.31 29.36,-24.25 67.75,-36.33 115.39,-36.33 22.95,0 44.15,3.16 63.73,9.57 19.47,6.31 35.89,14.79 49.16,25.45 13.27,10.65 24.36,22.08 33.06,34.36 8.7,12.4 15.01,25.12 19.03,38.28l-61.12 28.06c-18.93,-51.88 -55.47,-77.76 -109.63,-77.76 -27.18,0 -48.72,6.31 -64.49,18.93 -15.88,12.73 -23.7,29.15 -23.7,49.59 0,18.05 5.66,32.19 16.96,42.53 11.42,10.33 29.8,18.27 55.36,24.03l62.75 13.7c41.44,8.92 73.63,24.58 96.69,46.88 23.05,22.29 34.58,50.24 34.58,83.74 0,41.43 -14.9,74.71 -44.81,99.94 -29.8,25.12 -71.34,37.74 -124.42,37.74 -47.96,0 -88.09,-11.64 -120.39,-34.69 -32.3,-23.17 -53.83,-53.83 -64.71,-92.12zm450.9 117.56l0 -456.88 65.25 0 0 456.88 -65.25 0zm162.8 -228.5c-0.43,-34.14 5.22,-66.23 17.07,-96.03 11.75,-29.8 27.95,-55.14 48.51,-75.8 20.66,-20.77 45.13,-36.98 73.63,-48.62 28.5,-11.64 58.62,-17.29 90.48,-16.86 42.96,-0.65 81.89,9.03 116.8,29.15 34.91,20.01 62.32,48.4 82.22,84.94 19.8,36.54 29.48,77.54 28.82,123.22 0.43,34.26 -5.11,66.23 -16.53,96.14 -11.53,29.8 -27.41,55.14 -47.63,75.92 -20.34,20.88 -44.7,37.08 -72.98,48.83 -28.39,11.64 -58.62,17.29 -90.7,16.86 -31.87,0.43 -62.1,-5.22 -90.59,-16.86 -28.6,-11.75 -53.18,-27.95 -73.63,-48.83 -20.55,-20.77 -36.65,-46.12 -48.4,-75.92 -11.86,-29.91 -17.51,-61.88 -17.07,-96.14zm388.37 0c0,-33.93 -6.31,-64.27 -19.15,-91.03 -12.72,-26.86 -31.21,-47.96 -55.57,-63.62 -24.36,-15.66 -52.53,-23.39 -84.61,-23.39 -32.09,0 -60.25,7.72 -84.61,23.39 -24.25,15.66 -42.74,36.76 -55.36,63.62 -12.61,26.75 -19.03,57.09 -19.03,91.03 0,52.75 14.35,95.6 43.07,128.66 28.71,32.96 67.31,49.49 115.93,49.49 48.73,0 87.44,-16.53 116.15,-49.49 28.82,-33.06 43.18,-75.91 43.18,-128.66zm167.7 -228.39l99.07 0 240.24 377.82 23.28 -16.2c-12.18,-18.27 -20.23,-35.68 -24.47,-52.1 -4.13,-16.42 -6.2,-39.15 -6.2,-67.97l0 -241.55 65.36 0 0 456.88 -81.57 0 -254.6 -402.07 -23.27 15.23c10,19.36 17.07,38.83 21.21,58.51 4.13,19.69 6.2,44.27 6.2,73.74l0 254.6 -65.25 0 0 -456.88z"/>
  <path fill="#3E4095" fill-rule="nonzero" stroke="#FEFEFE" stroke-width="12.91" stroke-miterlimit="22.9256" d="M3470.23 743.69c-0.72,-57.22 8.75,-110.98 28.61,-160.91 19.68,-49.93 46.83,-92.39 81.28,-127.02 34.63,-34.8 75.63,-61.96 123.38,-81.46 47.74,-19.5 98.22,-28.97 151.62,-28.25 71.98,-1.09 137.22,15.13 195.71,48.84 58.5,33.53 104.42,81.09 137.77,142.33 33.17,61.23 49.38,129.93 48.29,206.46 0.73,57.4 -8.56,110.98 -27.7,161.1 -19.31,49.93 -45.92,92.39 -79.82,127.2 -34.08,34.98 -74.9,62.14 -122.28,81.82 -47.56,19.5 -98.22,28.98 -151.98,28.25 -53.39,0.73 -104.06,-8.75 -151.8,-28.25 -47.93,-19.68 -89.11,-46.83 -123.38,-81.82 -34.44,-34.81 -61.41,-77.27 -81.09,-127.2 -19.86,-50.11 -29.33,-103.69 -28.61,-161.1zm650.76 0c0,-56.85 -10.57,-107.7 -32.07,-152.53 -21.32,-45.01 -52.3,-80.36 -93.12,-106.61 -40.82,-26.24 -88.02,-39.18 -141.78,-39.18 -53.76,0 -100.96,12.93 -141.78,39.18 -40.63,26.24 -71.62,61.59 -92.76,106.61 -21.13,44.83 -31.88,95.67 -31.88,152.53 0,88.38 24.05,160.19 72.16,215.58 48.11,55.21 112.8,82.92 194.26,82.92 81.64,0 146.52,-27.7 194.63,-82.92 48.29,-55.4 72.34,-127.2 72.34,-215.58zm269.71 86.56l0 -469.25 109.52 0 0 453.76c0,73.26 15.67,129.2 46.83,167.65 31.35,38.45 78.72,57.58 142.15,57.58 62.87,0 110.25,-19.49 141.96,-58.68 31.7,-39.18 47.56,-94.58 47.56,-166.56l0 -453.76 109.34 0 0 469.25c0,100.41 -25.69,177.49 -77.08,231.25 -51.39,53.57 -125.38,80.55 -221.77,80.55 -94.4,0 -167.66,-26.24 -219.95,-78.72 -52.3,-52.48 -78.54,-130.3 -78.54,-233.07zm805.65 296.31l0 -765.56 326.74 0c75.44,0 135.4,19.49 180.04,58.68 44.65,39.18 67.06,88.93 67.06,149.43 0,29.34 -5.1,54.85 -15.12,76.9 -10.21,22.05 -24.42,39.73 -42.46,53.21 -18.22,13.3 -38.81,23.51 -61.96,30.61 -23.14,7.11 -49.02,11.48 -77.45,12.94l0 45.92c54.85,1.64 94.94,13.12 120.46,34.26 25.33,21.32 43.18,58.31 53.57,111.35l37.36 192.25 -119.55 0 -31.52 -182.6c-8.2,-48.47 -25.33,-82.73 -51.21,-102.96 -26.06,-20.41 -65.42,-30.43 -118.09,-30.43l-158.54 0 0 315.99 -109.34 0zm109.34 -664.6l0 250.39 200.82 0c46.65,0 83.1,-10.93 109.34,-32.44 26.42,-21.5 39.54,-52.66 39.54,-93.67 0,-40.82 -13.12,-71.8 -39.18,-92.94 -26.24,-20.96 -62.69,-31.34 -109.7,-31.34l-200.82 0z"/>
  <path fill="#3E4095" stroke="#FEFEFE" stroke-width="12.91" stroke-miterlimit="22.9256" d="M3293.54 487.65l269.16 -441 -130.3 0 -121.19 214.67c-17.85,31.16 -30.06,59.59 -36.81,84.74 -6.93,25.33 -10.57,53.76 -11.3,85.47l-45.92 0c-0.73,-31.71 -4.56,-59.95 -11.66,-84.56 -7.11,-24.78 -20.23,-53.03 -39,-84.74l-128.66 -215.58 -131.39 0 277.54 445.19 0.44 333.58 109.52 0 -0.44 -337.77z"/>
  <path fill="#FEFEFE" fill-rule="nonzero" stroke="#3E4095" stroke-width="12.91" stroke-miterlimit="22.9256" d="M547.68 787.01l-541.22 0 0 -765.56 541.22 0 0 100.96 -431.89 0 0 218.31 320.36 0 0 99.86 -320.36 0 0 246.01 431.89 0 0 100.41zm162.38 -765.56l166.01 0 402.55 633.07 38.99 -27.15c-20.41,-30.61 -33.89,-59.77 -41,-87.29 -6.92,-27.52 -10.38,-65.6 -10.38,-113.9l0 -404.74 109.52 0 0 765.56 -136.68 0 -426.61 -673.71 -38.99 25.51c16.76,32.43 28.61,65.05 35.53,98.04 6.93,32.98 10.39,74.17 10.39,123.56l0 426.61 -109.34 0 0 -765.56zm794.35 534.85l112.8 -27.15c0,60.13 8.38,104.42 25.32,132.85 16.95,28.6 43.74,42.82 80.36,42.82 36.99,0 64.15,-13.67 81.28,-40.82 17.32,-27.33 26.06,-69.79 26.06,-127.38l0 -515.17 109.34 0 0 518.45c0,89.29 -17.68,155.44 -52.85,198.26 -35.17,42.83 -89.29,64.33 -162.37,64.33 -69.25,0 -122.83,-21.5 -160.55,-64.69 -37.72,-43 -57.58,-103.51 -59.41,-181.5zm590.07 -152.17c-0.72,-57.22 8.75,-110.98 28.61,-160.91 19.68,-49.93 46.83,-92.39 81.28,-127.02 34.63,-34.8 75.63,-61.96 123.38,-81.46 47.74,-19.5 98.22,-28.97 151.62,-28.25 71.98,-1.09 137.22,15.13 195.71,48.84 58.5,33.53 104.42,81.09 137.77,142.33 33.17,61.23 49.38,129.93 48.29,206.46 0.73,57.4 -8.56,110.98 -27.7,161.1 -19.31,49.93 -45.92,92.39 -79.82,127.2 -34.08,34.98 -74.9,62.14 -122.28,81.82 -47.56,19.5 -98.22,28.98 -151.98,28.25 -53.39,0.73 -104.06,-8.75 -151.8,-28.25 -47.93,-19.68 -89.11,-46.83 -123.38,-81.82 -34.44,-34.81 -61.41,-77.27 -81.09,-127.2 -19.86,-50.11 -29.33,-103.69 -28.61,-161.1zm650.76 0c0,-56.85 -10.57,-107.7 -32.07,-152.53 -21.32,-45.01 -52.3,-80.36 -93.12,-106.61 -40.82,-26.24 -88.02,-39.18 -141.78,-39.18 -53.76,0 -100.96,12.93 -141.78,39.18 -40.63,26.24 -71.62,61.59 -92.76,106.61 -21.13,44.83 -31.88,95.67 -31.88,152.53 0,88.38 24.05,160.19 72.16,215.58 48.11,55.21 112.8,82.92 194.26,82.92 81.64,0 146.52,-27.7 194.63,-82.92 48.29,-55.4 72.34,-127.2 72.34,-215.58zm395.62 62.5l-277.54 -445.19 131.39 0 128.66 215.58c18.77,31.71 31.89,59.96 39,84.74 7.1,24.6 10.93,52.84 11.66,84.56l45.92 0c0.73,-31.71 4.37,-60.13 11.3,-85.47 6.74,-25.15 18.95,-53.58 36.81,-84.74l121.19 -214.67 130.3 0 -269.16 441 0.44 337.77 -109.52 0 -0.44 -333.58z"/>
 </g>
</svg>
