<?xml version="1.0" encoding="UTF-8"?>
<!DOCTYPE svg PUBLIC "-//W3C//DTD SVG 1.1//EN" "http://www.w3.org/Graphics/SVG/1.1/DTD/svg11.dtd">
<svg xmlns="http://www.w3.org/2000/svg" xml:space="preserve" width="52.7519mm" height="52.7519mm" version="1.1" shape-rendering="geometricPrecision" text-rendering="geometricPrecision" image-rendering="optimizeQuality" fill-rule="evenodd" clip-rule="evenodd" viewBox="0 0 15748.52 15748.52"
  xmlns:xlink="http://www.w3.org/1999/xlink"
  xmlns:xodm="http://www.corel.com/coreldraw/odm/2003">
  <path id="black_down" fill="#201E1E" d="M6752.3 8011.3l3404.87 1.85 0 962.76 -3385.56 0.54 -19.32 -965.15zm-306.51 7697.24l0 -4246.45c0,-397.24 -410.43,-1064.14 -873.41,-1073.97l-1795.8 -38.21c-1242.46,-26.45 -1297,-2348.97 80.9,-2345.65l2894.82 7.05 19.32 965.15 -2631.03 -42.03c-537.46,-8.6 -304.15,479.57 -116.22,478.05l1612.59 -12.96c805.82,-6.45 1819.93,1022.29 1819.93,1865.51l0 4483.49 -1011.09 -39.97z"/>
  <path id="blue_left" fill="#0089DE" d="M39.97 6445.76l4246.45 0c397.24,0 1064.14,-410.43 1073.97,-873.41l38.21 -1795.8c26.45,-1242.49 2348.67,-1296.91 2345.65,80.9l-6.45 2911.59 -971.39 0 47.68 -2628.49c9.76,-537.49 -479.57,-304.06 -478.05,-116.22l12.96 1612.59c6.45,805.82 -1022.29,1819.93 -1865.51,1819.93l-4483.49 0 39.97 -1011.09zm6726.45 323.29l971.39 0 -6.27 3357.88 -975.18 0 10.06 -3357.88z"/>
  <path id="black_up" fill="#201E1E" d="M5602.21 6769.05l2422.26 0 0 962.76 -2422.26 0 0 -962.76zm3700.51 -6729.08l0 4246.45c0,397.24 410.43,1064.14 873.41,1073.97l1795.8 38.21c1242.49,26.42 1296.88,2358.04 -80.9,2345.65l-2924.88 -26.33 15.14 -947.5 2626.64 43.68c537.49,8.9 304.09,-479.54 116.22,-478.05l-1612.59 12.96c-805.82,6.45 -1819.93,-1022.29 -1819.93,-1865.51l0 -4483.49 1011.09 39.97z"/>
  <path id="blue_right" fill="#0089DE" d="M8024.47 5622.39l975.18 0 -53.59 3353.52 -937.86 0 16.27 -3353.52zm7684.07 3680.3l-4246.45 0c-397.24,0 -1064.14,410.43 -1073.97,873.41l-38.21 1795.8c-26.42,1242.4 -2347.5,1297 -2345.65,-80.9l3.94 -2915.09 937.86 0 -11.64 2631.98c-2.36,537.46 479.54,304.15 478.05,116.22l-12.96 -1612.59c-6.45,-805.82 1022.29,-1819.93 1865.51,-1819.93l4483.49 0 -39.97 1011.09z"/>
  <rect id="patch" fill="#201E1E" x="8012.84" y="8011.99" width="2144.32" height="963.92"/>
</svg>
