<?xml version="1.0" encoding="UTF-8"?>
<!DOCTYPE svg PUBLIC "-//W3C//DTD SVG 1.1//EN" "http://www.w3.org/Graphics/SVG/1.1/DTD/svg11.dtd">
<!-- Creator: CorelDRAW 2020 (64-Bit) -->
<svg xmlns="http://www.w3.org/2000/svg" xml:space="preserve" width="89.6485mm" height="23.0151mm" version="1.1" shape-rendering="geometricPrecision" text-rendering="geometricPrecision" image-rendering="optimizeQuality" fill-rule="evenodd" clip-rule="evenodd" viewBox="0 0 5789.76 1486.38"
  xmlns:xlink="http://www.w3.org/1999/xlink"
  xmlns:xodm="http://www.corel.com/coreldraw/odm/2003">
  <g id="Layer_x0020_1">
    <metadata id="CorelCorpID_0Corel-Layer"/>
    <path fill="#FEFEFE" fill-rule="nonzero" d="M544.03 780.7l-541.33 0 0 -765.7 541.33 0 0 100.98 -431.97 0 0 218.35 320.42 0 0 99.88 -320.42 0 0 246.06 431.97 0 0 100.43zm162.41 -765.7l166.04 0 402.63 633.19 39 -27.16c-20.41,-30.62 -33.9,-59.78 -41.01,-87.3 -6.92,-27.53 -10.38,-65.62 -10.38,-113.92l0 -404.81 109.54 0 0 765.7 -136.7 0 -426.69 -673.84 -39 25.52c16.77,32.44 28.62,65.07 35.54,98.06 6.93,32.99 10.39,74.19 10.39,123.58l0 426.69 -109.36 0 0 -765.7zm794.5 534.95l112.83 -27.16c0,60.15 8.38,104.44 25.33,132.87 16.95,28.61 43.75,42.83 80.38,42.83 37,0 64.16,-13.67 81.29,-40.83 17.32,-27.34 26.07,-69.81 26.07,-127.4l0 -515.27 109.36 0 0 518.55c0,89.31 -17.68,155.47 -52.86,198.3 -35.18,42.84 -89.31,64.34 -162.4,64.34 -69.26,0 -122.85,-21.51 -160.58,-64.71 -37.73,-43.01 -57.59,-103.53 -59.42,-181.54zm590.18 -152.2c-0.72,-57.23 8.75,-111 28.62,-160.94 19.68,-49.94 46.84,-92.41 81.29,-127.04 34.64,-34.81 75.65,-61.97 123.4,-81.47 47.75,-19.5 98.24,-28.98 151.65,-28.26 71.99,-1.09 137.25,15.13 195.75,48.85 58.51,33.54 104.44,81.11 137.79,142.35 33.18,61.24 49.39,129.95 48.3,206.5 0.73,57.41 -8.56,111.01 -27.71,161.13 -19.32,49.94 -45.93,92.41 -79.83,127.22 -34.09,34.99 -74.91,62.15 -122.3,81.83 -47.57,19.5 -98.24,28.98 -152.01,28.26 -53.4,0.73 -104.08,-8.75 -151.83,-28.26 -47.94,-19.68 -89.13,-46.84 -123.4,-81.83 -34.45,-34.82 -61.42,-77.29 -81.11,-127.22 -19.87,-50.12 -29.34,-103.71 -28.62,-161.13zm650.88 0c0,-56.87 -10.57,-107.72 -32.08,-152.56 -21.33,-45.02 -52.31,-80.38 -93.14,-106.63 -40.83,-26.25 -88.03,-39.18 -141.8,-39.18 -53.77,0 -100.98,12.94 -141.8,39.18 -40.64,26.25 -71.63,61.61 -92.77,106.63 -21.14,44.84 -31.89,95.69 -31.89,152.56 0,88.4 24.06,160.22 72.17,215.62 48.12,55.22 112.83,82.93 194.3,82.93 81.66,0 146.54,-27.71 194.67,-82.93 48.3,-55.41 72.36,-127.22 72.36,-215.62zm395.7 62.52l-277.59 -445.27 131.41 0 128.68 215.62c18.77,31.72 31.9,59.97 39.01,84.76 7.1,24.61 10.93,52.85 11.66,84.57l45.93 0c0.73,-31.72 4.37,-60.15 11.3,-85.48 6.74,-25.16 18.96,-53.59 36.81,-84.76l121.21 -214.71 130.32 0 -269.21 441.08 0.72 562.12 -109.55 0 -0.72 -557.93z"/>
    <path fill="#0089DE" fill-rule="nonzero" d="M3195.15 1300.62l0 -26.91 162.32 0 0 26.91 -68.86 0 0 177.16 -26.96 0 0 -177.16 -66.49 0zm128.93 177.16l70.71 -204.08 37.19 0 69.41 204.08 -30.1 0 -17.5 -53.92 -82.91 0 -17.77 53.92 -29.02 0zm74.25 -136.06l-18.53 55.66 65.32 0 -18.26 -55.66c-3.15,-10.15 -5.39,-18.52 -6.64,-25.12 -1.26,-6.61 -1.94,-14.04 -1.94,-22.4l-11.26 0c-0.36,8.8 -1.21,16.71 -2.51,23.66 -1.3,7 -3.36,14.96 -6.19,23.86zm161.55 136.06l-26.92 0 0 -204.08 26.92 0 0 48.09c0,10.93 -0.94,19.63 -2.87,26.18 -1.92,6.56 -5.11,12.63 -9.6,18.21l8.38 8.41 86.91 -100.9 36.38 0 -75.41 83.94 88.83 120.14 -35.22 0 -72.41 -99.05 -24.99 27.88 0 71.17zm156.84 0l0 -204.08 82.64 0c18.84,0 33.33,4.42 43.47,13.32 10.09,8.83 15.16,20.45 15.16,34.78 0,13.01 -3.68,23.22 -11.04,30.6 -7.36,7.38 -17.14,11.47 -29.29,12.24l0 11.95c13.23,0.48 24.27,4.76 33.15,12.83 8.93,8.06 13.37,19.23 13.37,33.56 0,11.75 -2.73,21.81 -8.21,30.17 -5.48,8.36 -12.83,14.52 -22.11,18.56 -9.24,4.03 -19.83,6.07 -31.86,6.07l-85.28 0zm26.92 -26.77l54.55 0c11.49,0 20.59,-2.96 27.33,-8.94 6.77,-5.97 10.13,-14.09 10.13,-24.33 0,-10.44 -3.27,-18.51 -9.78,-24.15 -3.27,-2.82 -7.22,-4.95 -11.82,-6.34 -4.59,-1.39 -9.94,-2.43 -15.86,-2.11l-54.01 2.94 -0.54 62.92zm52.44 -150.39l-52.44 0 0 58.2 52.44 0c10.28,0 18.48,-2.73 24.63,-8.21 6.19,-5.43 9.29,-12.82 9.29,-22.09 0,-9.24 -2.91,-16.18 -8.75,-20.84 -5.83,-4.71 -14.22,-7.05 -25.17,-7.05zm95.96 75.1c-0.18,-15.25 2.15,-29.58 7.05,-42.89 4.84,-13.31 11.53,-24.63 20.01,-33.86 8.52,-9.27 18.62,-16.51 30.37,-21.71 11.75,-5.19 24.19,-7.72 37.33,-7.53 17.72,-0.29 33.78,4.03 48.19,13.03 14.4,8.93 25.7,21.61 33.91,37.93 8.17,16.33 12.15,34.64 11.89,55.04 0.17,15.31 -2.11,29.59 -6.82,42.95 -4.75,13.3 -11.31,24.63 -19.65,33.9 -8.39,9.33 -18.44,16.57 -30.1,21.82 -11.71,5.19 -24.19,7.72 -37.42,7.53 -13.14,0.19 -25.61,-2.34 -37.37,-7.53 -11.8,-5.25 -21.94,-12.48 -30.37,-21.82 -8.48,-9.27 -15.12,-20.6 -19.96,-33.9 -4.9,-13.36 -7.23,-27.64 -7.05,-42.95zm160.2 0c0,-15.15 -2.6,-28.71 -7.89,-40.65 -5.26,-12 -12.88,-21.42 -22.93,-28.42 -10.05,-6.99 -21.67,-10.44 -34.91,-10.44 -13.23,0 -24.85,3.46 -34.91,10.44 -10,7 -17.62,16.42 -22.83,28.42 -5.21,11.95 -7.85,25.5 -7.85,40.65 0,23.57 5.92,42.7 17.76,57.47 11.84,14.72 27.77,22.11 47.82,22.11 20.1,0 36.07,-7.39 47.91,-22.11 11.89,-14.76 17.81,-33.9 17.81,-57.47zm69.17 -102.01l40.87 0 99.1 168.76 9.6 -7.24c-5.02,-8.16 -8.34,-15.94 -10.09,-23.28 -1.7,-7.33 -2.56,-17.48 -2.56,-30.36l0 -107.89 26.96 0 0 204.08 -33.64 0 -105.02 -179.59 -9.6 6.8c4.13,8.65 7.05,17.34 8.75,26.14 1.7,8.79 2.56,19.77 2.56,32.93l0 113.72 -26.92 0 0 -204.08zm272.73 100.32c-0.18,-14.34 1.98,-27.89 6.42,-40.76 4.48,-12.88 10.67,-23.95 18.62,-33.23 7.94,-9.33 17.58,-16.66 28.97,-22.15 11.4,-5.44 23.55,-8.16 36.52,-8.16 9.56,0 18.75,1.21 27.54,3.69 8.8,2.47 17.05,6.12 24.63,10.98 7.63,4.81 14.27,11.17 19.92,18.99 5.65,7.82 9.82,16.71 12.43,26.67l-26.92 10.38c-3.55,-11.94 -9.73,-22.24 -18.66,-30.89 -8.25,-8.94 -20.6,-13.36 -37.1,-13.36 -19.06,0 -34.45,7 -46.03,20.99 -11.62,13.99 -17.45,32.84 -17.45,56.54 0,24.48 5.83,44.16 17.5,59.02 11.66,14.82 27,22.25 45.98,22.25 15.52,0 27.73,-3.89 36.56,-11.71 8.84,-7.87 15.62,-19.23 20.23,-34.24l26.16 10.69c-4.98,18.5 -14.67,33.46 -28.98,44.93 -14.31,11.51 -32.3,17.24 -53.97,17.24 -14,0.19 -26.87,-2.53 -38.63,-8.11 -11.75,-5.59 -21.53,-13.27 -29.39,-22.98 -7.81,-9.71 -13.91,-21.23 -18.17,-34.44 -4.31,-13.27 -6.37,-27.35 -6.19,-42.36zm198.07 1.69c-0.18,-15.25 2.15,-29.58 7.05,-42.89 4.84,-13.31 11.53,-24.63 20.01,-33.86 8.52,-9.27 18.62,-16.51 30.37,-21.71 11.75,-5.19 24.18,-7.72 37.32,-7.53 17.72,-0.29 33.78,4.03 48.19,13.03 14.4,8.93 25.7,21.61 33.92,37.93 8.16,16.33 12.15,34.64 11.88,55.04 0.17,15.31 -2.11,29.59 -6.82,42.95 -4.75,13.3 -11.3,24.63 -19.65,33.9 -8.39,9.33 -18.44,16.57 -30.1,21.82 -11.71,5.19 -24.18,7.72 -37.42,7.53 -13.14,0.19 -25.61,-2.34 -37.37,-7.53 -11.8,-5.25 -21.94,-12.48 -30.37,-21.82 -8.48,-9.27 -15.12,-20.6 -19.96,-33.9 -4.9,-13.36 -7.23,-27.64 -7.05,-42.95zm160.2 0c0,-15.15 -2.6,-28.71 -7.89,-40.65 -5.26,-12 -12.88,-21.42 -22.93,-28.42 -10.05,-6.99 -21.67,-10.44 -34.91,-10.44 -13.23,0 -24.85,3.46 -34.9,10.44 -10,7 -17.63,16.42 -22.84,28.42 -5.21,11.95 -7.85,25.5 -7.85,40.65 0,23.57 5.92,42.7 17.77,57.47 11.84,14.72 27.77,22.11 47.82,22.11 20.1,0 36.07,-7.39 47.91,-22.11 11.89,-14.76 17.81,-33.9 17.81,-57.47zm96.1 102.07l-26.92 0 0 -204.08 45.18 0 41.95 116.97c3.05,7.97 5.16,15.89 6.33,23.71 1.12,7.82 1.92,17.87 2.33,30.22l11.3 0c0.36,-8.7 0.68,-15.25 0.99,-19.53 0.32,-4.33 1.08,-9.62 2.33,-15.84 1.21,-6.21 2.96,-12.39 5.25,-18.55l41 -116.97 44.14 0 0 204.08 -26.69 0 0 -105.75c0,-26.47 4.31,-50.86 12.92,-73.16l-11.31 -4.66 -65.45 183.58 -19.06 0 -66.26 -183.58 -11.3 4.66c8.88,22.06 13.28,46.39 13.28,73.16l0 105.75zm227.67 -204.08l76.36 0c19.52,0 34.95,5.68 46.22,17.15 11.26,11.42 16.86,26.43 16.86,45.03 0,18.7 -5.66,33.76 -17,45.18 -11.35,11.46 -26.83,17.15 -46.34,17.15l-49.17 0 0 79.57 -26.92 0 0 -204.08zm71.33 26.91l-44.41 0 0 72.28 44.41 0c12.74,0 22.48,-3.4 29.34,-10.2 6.82,-6.76 10.23,-15.69 10.23,-26.81 0,-10.93 -3.36,-19.53 -10.18,-25.85 -6.77,-6.31 -16.56,-9.42 -29.39,-9.42zm53.79 177.16l70.71 -204.08 37.19 0 69.41 204.08 -30.1 0 -17.5 -53.92 -82.91 0 -17.77 53.92 -29.02 0zm74.25 -136.06l-18.53 55.66 65.32 0 -18.26 -55.66c-3.15,-10.15 -5.39,-18.52 -6.65,-25.12 -1.25,-6.61 -1.93,-14.04 -1.93,-22.4l-11.26 0c-0.36,8.8 -1.21,16.71 -2.51,23.66 -1.3,7 -3.36,14.96 -6.19,23.86zm134.63 -68.01l40.87 0 99.1 168.76 9.6 -7.24c-5.02,-8.16 -8.34,-15.94 -10.09,-23.28 -1.7,-7.33 -2.56,-17.48 -2.56,-30.36l0 -107.89 26.96 0 0 204.08 -33.64 0 -105.02 -179.59 -9.6 6.8c4.13,8.65 7.05,17.34 8.75,26.14 1.7,8.79 2.56,19.77 2.56,32.93l0 113.72 -26.92 0 0 -204.08zm264.69 118.68l-68.32 -118.68 32.35 0 31.67 57.47c4.62,8.45 7.85,15.98 9.6,22.59 1.75,6.56 2.69,14.09 2.87,22.54l11.3 0c0.19,-8.45 1.08,-16.03 2.78,-22.78 1.66,-6.7 4.67,-14.29 9.06,-22.59l29.84 -57.22 32.08 0 -66.26 117.56 0 86.52 -26.97 0 0 -85.4zm72.15 85.4l0 -37.85 34.45 0 0 37.85 -34.45 0z"/>
    <path fill="#FEFEFE" fill-rule="nonzero" d="M-0 1477.11l0 -456.97 160.55 0c65.48,0 118.45,20.78 159.03,62.44 40.57,41.66 60.91,96.38 60.91,164.14 0,71.36 -20.23,127.6 -60.59,168.71 -40.35,41.12 -94.85,61.68 -163.49,61.68l-156.42 0zm65.26 -59.93l81.58 0c110.08,0 165.13,-56.57 165.13,-169.8 0,-52.11 -13.7,-92.9 -41.12,-122.59 -27.41,-29.59 -67.22,-44.38 -119.54,-44.38l-86.04 0 0 336.77zm737.39 59.93l-323.06 0 0 -456.97 323.06 0 0 60.26 -257.8 0 0 130.32 191.23 0 0 59.61 -191.23 0 0 146.85 257.8 0 0 59.93zm37.31 -232.34c-0.43,-32.09 4.79,-62.44 15.56,-91.26 10.88,-28.83 25.88,-53.63 45.14,-74.41 19.25,-20.89 42.64,-37.31 70.27,-49.6 27.63,-12.19 57.1,-18.28 88.54,-18.28 23.17,0 45.47,2.72 66.79,8.27 21.33,5.55 41.34,13.7 59.72,24.59 18.49,10.77 34.59,25.02 48.3,42.53 13.7,17.51 23.82,37.42 30.13,59.72l-65.27 23.28c-8.6,-26.76 -23.61,-49.82 -45.25,-69.18 -20.01,-20.01 -49.92,-29.91 -89.96,-29.91 -46.23,0 -83.54,15.67 -111.6,47 -28.18,31.32 -42.31,73.53 -42.31,126.61 0,54.82 14.14,98.88 42.42,132.16 28.29,33.18 65.49,49.82 111.5,49.82 73.5,0 114.82,-34.18 137.71,-102.91l63.42 23.93c-12.08,41.44 -35.57,74.95 -70.27,100.61 -34.7,25.78 -78.32,38.62 -130.86,38.62 -33.94,0.43 -65.15,-5.66 -93.65,-18.17 -28.5,-12.51 -52.22,-29.7 -71.25,-51.45 -18.93,-21.75 -33.73,-47.53 -44.06,-77.12 -10.44,-29.7 -15.44,-61.24 -15.01,-94.85zm513.1 232.34l0 -456.97 65.26 0 0 456.97 -65.26 0zm153.26 -117.59l62.44 -28.72c9.78,30.46 25.23,54.06 46.23,71.14 20.99,16.97 47.86,25.45 80.6,25.45 30.57,0 54.39,-6.53 71.25,-19.58 16.86,-13.05 25.35,-30.89 25.35,-53.41 0,-19.36 -6.64,-34.59 -19.8,-45.9 -13.16,-11.21 -34.15,-20.01 -63.08,-26.43l-60.81 -13.7c-39.59,-8.49 -69.39,-22.95 -89.41,-43.3 -20.12,-20.45 -30.13,-48.51 -30.13,-84.19 0,-37.96 14.69,-69.18 43.95,-93.33 29.37,-24.26 67.77,-36.33 115.41,-36.33 22.95,0 44.16,3.16 63.74,9.57 19.47,6.31 35.9,14.8 49.17,25.46 13.27,10.66 24.37,22.08 33.07,34.37 8.7,12.4 15.01,25.13 19.03,38.29l-61.13 28.06c-18.93,-51.89 -55.48,-77.78 -109.65,-77.78 -27.19,0 -48.73,6.31 -64.51,18.93 -15.88,12.73 -23.71,29.15 -23.71,49.6 0,18.06 5.66,32.2 16.97,42.53 11.42,10.33 29.8,18.28 55.37,24.04l62.76 13.7c41.45,8.92 73.64,24.59 96.71,46.89 23.06,22.29 34.59,50.25 34.59,83.76 0,41.44 -14.91,74.73 -44.81,99.96 -29.8,25.13 -71.36,37.75 -124.44,37.75 -47.97,0 -88.1,-11.64 -120.41,-34.7 -32.3,-23.17 -53.84,-53.84 -64.72,-92.13zm450.99 117.59l0 -456.97 65.26 0 0 456.97 -65.26 0zm162.83 -228.54c-0.43,-34.15 5.22,-66.24 17.08,-96.05 11.75,-29.8 27.96,-55.15 48.51,-75.81 20.67,-20.78 45.14,-36.99 73.64,-48.62 28.5,-11.64 58.63,-17.3 90.5,-16.86 42.97,-0.65 81.91,9.03 116.82,29.15 34.92,20.01 62.33,48.4 82.23,84.95 19.8,36.55 29.48,77.56 28.83,123.24 0.43,34.27 -5.11,66.24 -16.53,96.16 -11.53,29.8 -27.42,55.15 -47.64,75.93 -20.34,20.88 -44.71,37.09 -72.99,48.84 -28.39,11.64 -58.63,17.3 -90.72,16.86 -31.87,0.43 -62.11,-5.22 -90.61,-16.86 -28.61,-11.75 -53.19,-27.96 -73.64,-48.84 -20.56,-20.78 -36.66,-46.13 -48.4,-75.93 -11.86,-29.91 -17.51,-61.89 -17.08,-96.16zm388.44 0c0,-33.94 -6.31,-64.29 -19.15,-91.04 -12.72,-26.87 -31.21,-47.97 -55.58,-63.63 -24.37,-15.67 -52.54,-23.39 -84.63,-23.39 -32.09,0 -60.26,7.72 -84.63,23.39 -24.26,15.66 -42.75,36.77 -55.37,63.63 -12.61,26.76 -19.03,57.1 -19.03,91.04 0,52.76 14.36,95.61 43.08,128.68 28.71,32.96 67.33,49.5 115.95,49.5 48.73,0 87.46,-16.53 116.17,-49.5 28.83,-33.07 43.19,-75.92 43.19,-128.68zm167.73 -228.43l99.09 0 240.29 377.89 23.28 -16.2c-12.19,-18.28 -20.23,-35.68 -24.48,-52.11 -4.13,-16.42 -6.2,-39.16 -6.2,-67.99l0 -241.59 65.37 0 0 456.97 -81.58 0 -254.64 -402.14 -23.28 15.23c10,19.36 17.08,38.83 21.21,58.52 4.13,19.69 6.2,44.28 6.2,73.75l0 254.64 -65.26 0 0 -456.97z"/>
    <path fill="#CACBCD" fill-rule="nonzero" stroke="#FEFEFE" stroke-width="12.92" stroke-miterlimit="22.9256" d="M3467.13 737.37c-0.72,-57.23 8.75,-111 28.62,-160.94 19.68,-49.94 46.84,-92.41 81.29,-127.04 34.64,-34.81 75.65,-61.97 123.4,-81.47 47.75,-19.5 98.24,-28.98 151.65,-28.26 71.99,-1.09 137.25,15.13 195.75,48.85 58.51,33.54 104.44,81.11 137.79,142.35 33.18,61.24 49.39,129.95 48.3,206.5 0.73,57.41 -8.56,111.01 -27.71,161.13 -19.32,49.94 -45.93,92.41 -79.83,127.22 -34.09,34.99 -74.91,62.15 -122.3,81.83 -47.57,19.5 -98.24,28.98 -152.01,28.26 -53.4,0.73 -104.08,-8.75 -151.83,-28.26 -47.94,-19.68 -89.13,-46.84 -123.4,-81.83 -34.45,-34.82 -61.42,-77.29 -81.11,-127.22 -19.87,-50.12 -29.34,-103.71 -28.62,-161.13zm650.88 0c0,-56.87 -10.57,-107.72 -32.08,-152.56 -21.33,-45.02 -52.31,-80.38 -93.14,-106.63 -40.83,-26.25 -88.03,-39.18 -141.8,-39.18 -53.77,0 -100.98,12.94 -141.8,39.18 -40.64,26.25 -71.63,61.61 -92.77,106.63 -21.14,44.84 -31.89,95.69 -31.89,152.56 0,88.4 24.06,160.22 72.17,215.62 48.12,55.22 112.83,82.93 194.3,82.93 81.66,0 146.54,-27.71 194.67,-82.93 48.3,-55.41 72.36,-127.22 72.36,-215.62zm269.76 86.58l0 -469.34 109.54 0 0 453.84c0,73.27 15.67,129.22 46.84,167.68 31.35,38.46 78.74,57.59 142.17,57.59 62.88,0 110.27,-19.5 141.99,-58.69 31.71,-39.19 47.57,-94.59 47.57,-166.59l0 -453.84 109.36 0 0 469.34c0,100.43 -25.7,177.53 -77.1,231.3 -51.4,53.58 -125.4,80.56 -221.82,80.56 -94.41,0 -167.69,-26.25 -220,-78.74 -52.31,-52.49 -78.56,-130.32 -78.56,-233.12zm805.8 296.36l0 -765.7 326.8 0c75.46,0 135.42,19.5 180.08,58.69 44.66,39.19 67.08,88.95 67.08,149.46 0,29.35 -5.1,54.86 -15.13,76.92 -10.21,22.06 -24.43,39.74 -42.47,53.22 -18.23,13.3 -38.82,23.51 -61.97,30.62 -23.15,7.11 -49.02,11.48 -77.46,12.94l0 45.93c54.86,1.64 94.96,13.12 120.48,34.27 25.34,21.33 43.19,58.32 53.58,111.37l37.37 192.29 -119.57 0 -31.53 -182.63c-8.2,-48.48 -25.34,-82.74 -51.22,-102.98 -26.07,-20.41 -65.44,-30.44 -118.11,-30.44l-158.57 0 0 316.05 -109.36 0zm109.36 -664.73l0 250.43 200.86 0c46.66,0 83.11,-10.93 109.36,-32.45 26.43,-21.51 39.55,-52.67 39.55,-93.68 0,-40.82 -13.12,-71.81 -39.19,-92.95 -26.25,-20.96 -62.7,-31.35 -109.72,-31.35l-200.86 0z"/>
  </g>
</svg>
