<?xml version="1.0" encoding="UTF-8"?>
<!DOCTYPE svg PUBLIC "-//W3C//DTD SVG 1.1//EN" "http://www.w3.org/Graphics/SVG/1.1/DTD/svg11.dtd">
<!-- Creator: CorelDRAW 2020 (64-Bit) -->
<svg xmlns="http://www.w3.org/2000/svg" xml:space="preserve" width="89.7485mm" height="23.2151mm" version="1.1" shape-rendering="geometricPrecision" text-rendering="geometricPrecision" image-rendering="optimizeQuality" fill-rule="evenodd" clip-rule="evenodd"
viewBox="0 0 5794.33 1498.81"
 xmlns:xlink="http://www.w3.org/1999/xlink"
 xmlns:xodm="http://www.corel.com/coreldraw/odm/2003">
 <g id="Layer_x0020_1">
  <metadata id="CorelCorpID_0Corel-Layer"/>
  <path fill="#718FC8" fill-rule="nonzero" stroke="#373435" stroke-width="6.46" stroke-miterlimit="22.9256" d="M3200.56 1306.65l0 -26.9 162.26 0 0 26.9 -68.84 0 0 177.11 -26.95 0 0 -177.11 -66.47 0zm128.89 177.11l70.68 -204.01 37.17 0 69.38 204.01 -30.09 0 -17.49 -53.9 -82.88 0 -17.76 53.9 -29.01 0zm74.23 -136.02l-18.52 55.65 65.3 0 -18.25 -55.65c-3.14,-10.15 -5.38,-18.51 -6.64,-25.11 -1.26,-6.61 -1.94,-14.04 -1.94,-22.39l-11.25 0c-0.36,8.79 -1.21,16.7 -2.51,23.65 -1.3,7 -3.36,14.96 -6.19,23.85zm161.5 136.02l-26.91 0 0 -204.01 26.91 0 0 48.08c0,10.92 -0.94,19.62 -2.87,26.17 -1.92,6.55 -5.11,12.62 -9.59,18.21l8.38 8.41 86.88 -100.87 36.37 0 -75.39 83.91 88.8 120.1 -35.21 0 -72.39 -99.02 -24.98 27.87 0 71.15zm156.79 0l0 -204.01 82.61 0c18.83,0 33.32,4.42 43.46,13.31 10.09,8.83 15.16,20.44 15.16,34.77 0,13.01 -3.68,23.21 -11.03,30.59 -7.35,7.38 -17.13,11.47 -29.29,12.23l0 11.95c13.23,0.48 24.26,4.76 33.14,12.82 8.92,8.06 13.36,19.23 13.36,33.55 0,11.75 -2.73,21.8 -8.21,30.16 -5.47,8.35 -12.82,14.52 -22.11,18.56 -9.24,4.03 -19.83,6.07 -31.85,6.07l-85.25 0zm26.91 -26.76l54.54 0c11.49,0 20.58,-2.96 27.32,-8.94 6.77,-5.97 10.13,-14.09 10.13,-24.33 0,-10.44 -3.27,-18.5 -9.77,-24.14 -3.27,-2.81 -7.22,-4.95 -11.81,-6.33 -4.59,-1.39 -9.94,-2.43 -15.86,-2.11l-53.99 2.94 -0.54 62.9zm52.42 -150.35l-52.42 0 0 58.18 52.42 0c10.28,0 18.48,-2.72 24.62,-8.21 6.19,-5.43 9.28,-12.82 9.28,-22.09 0,-9.23 -2.91,-16.17 -8.75,-20.83 -5.83,-4.71 -14.22,-7.04 -25.16,-7.04zm95.93 75.07c-0.18,-15.24 2.15,-29.57 7.04,-42.88 4.84,-13.31 11.52,-24.62 20,-33.85 8.52,-9.27 18.61,-16.51 30.36,-21.71 11.75,-5.19 24.18,-7.72 37.32,-7.53 17.72,-0.29 33.77,4.03 48.17,13.02 14.39,8.93 25.7,21.6 33.9,37.92 8.17,16.32 12.15,34.63 11.89,55.02 0.17,15.3 -2.1,29.58 -6.82,42.93 -4.75,13.3 -11.3,24.62 -19.65,33.89 -8.39,9.33 -18.43,16.56 -30.09,21.81 -11.71,5.19 -24.18,7.72 -37.41,7.53 -13.14,0.19 -25.61,-2.34 -37.36,-7.53 -11.8,-5.25 -21.93,-12.48 -30.36,-21.81 -8.48,-9.27 -15.11,-20.59 -19.96,-33.89 -4.89,-13.35 -7.22,-27.63 -7.04,-42.93zm160.15 0c0,-15.15 -2.6,-28.7 -7.89,-40.64 -5.26,-12 -12.88,-21.42 -22.92,-28.41 -10.05,-6.99 -21.67,-10.44 -34.9,-10.44 -13.23,0 -24.84,3.45 -34.9,10.44 -10,7 -17.62,16.42 -22.82,28.41 -5.2,11.94 -7.84,25.5 -7.84,40.64 0,23.56 5.92,42.69 17.75,57.45 11.84,14.71 27.76,22.1 47.81,22.1 20.09,0 36.06,-7.39 47.9,-22.1 11.89,-14.76 17.81,-33.89 17.81,-57.45zm69.15 -101.98l40.86 0 99.07 168.71 9.59 -7.24c-5.02,-8.16 -8.34,-15.93 -10.08,-23.27 -1.7,-7.33 -2.56,-17.48 -2.56,-30.35l0 -107.85 26.95 0 0 204.01 -33.63 0 -104.99 -179.53 -9.6 6.8c4.13,8.64 7.04,17.33 8.75,26.13 1.7,8.79 2.56,19.76 2.56,32.92l0 113.69 -26.92 0 0 -204.01zm272.64 100.28c-0.18,-14.33 1.98,-27.88 6.42,-40.75 4.48,-12.87 10.67,-23.95 18.61,-33.22 7.93,-9.32 17.57,-16.66 28.96,-22.14 11.4,-5.44 23.55,-8.16 36.51,-8.16 9.56,0 18.75,1.21 27.54,3.69 8.79,2.47 17.04,6.12 24.62,10.98 7.62,4.81 14.26,11.17 19.91,18.99 5.65,7.82 9.82,16.7 12.42,26.66l-26.91 10.38c-3.54,-11.94 -9.73,-22.24 -18.65,-30.88 -8.25,-8.94 -20.59,-13.36 -37.09,-13.36 -19.06,0 -34.44,7 -46.01,20.98 -11.61,13.98 -17.44,32.83 -17.44,56.52 0,24.48 5.83,44.15 17.49,59 11.66,14.81 26.99,22.24 45.97,22.24 15.51,0 27.72,-3.89 36.55,-11.71 8.84,-7.86 15.61,-19.23 20.23,-34.23l26.15 10.68c-4.98,18.5 -14.67,33.45 -28.98,44.92 -14.31,11.5 -32.29,17.24 -53.95,17.24 -13.99,0.19 -26.86,-2.52 -38.61,-8.11 -11.75,-5.59 -21.52,-13.26 -29.38,-22.97 -7.81,-9.71 -13.91,-21.22 -18.16,-34.42 -4.31,-13.27 -6.37,-27.34 -6.19,-42.35zm198 1.69c-0.18,-15.24 2.15,-29.57 7.04,-42.88 4.84,-13.31 11.52,-24.62 20,-33.85 8.52,-9.27 18.61,-16.51 30.36,-21.71 11.74,-5.19 24.17,-7.72 37.31,-7.53 17.72,-0.29 33.77,4.03 48.17,13.02 14.39,8.93 25.7,21.6 33.91,37.92 8.16,16.32 12.15,34.63 11.88,55.02 0.17,15.3 -2.1,29.58 -6.82,42.93 -4.75,13.3 -11.3,24.62 -19.65,33.89 -8.39,9.33 -18.43,16.56 -30.09,21.81 -11.71,5.19 -24.17,7.72 -37.41,7.53 -13.14,0.19 -25.61,-2.34 -37.36,-7.53 -11.8,-5.25 -21.93,-12.48 -30.36,-21.81 -8.48,-9.27 -15.11,-20.59 -19.96,-33.89 -4.89,-13.35 -7.22,-27.63 -7.04,-42.93zm160.15 0c0,-15.15 -2.6,-28.7 -7.89,-40.64 -5.26,-12 -12.88,-21.42 -22.92,-28.41 -10.05,-6.99 -21.67,-10.44 -34.9,-10.44 -13.23,0 -24.84,3.45 -34.89,10.44 -10,7 -17.63,16.42 -22.83,28.41 -5.2,11.94 -7.84,25.5 -7.84,40.64 0,23.56 5.92,42.69 17.76,57.45 11.84,14.71 27.76,22.1 47.8,22.1 20.09,0 36.06,-7.39 47.9,-22.1 11.89,-14.76 17.81,-33.89 17.81,-57.45zm96.07 102.03l-26.92 0 0 -204.01 45.17 0 41.93 116.93c3.05,7.97 5.16,15.88 6.33,23.7 1.12,7.82 1.92,17.86 2.33,30.21l11.3 0c0.36,-8.7 0.68,-15.25 0.99,-19.52 0.32,-4.33 1.08,-9.61 2.33,-15.84 1.21,-6.21 2.96,-12.38 5.25,-18.55l40.99 -116.93 44.13 0 0 204.01 -26.68 0 0 -105.72c0,-26.46 4.31,-50.84 12.92,-73.14l-11.3 -4.66 -65.43 183.52 -19.06 0 -66.24 -183.52 -11.3 4.66c8.88,22.05 13.27,46.37 13.27,73.14l0 105.72zm227.6 -204.01l76.33 0c19.51,0 34.93,5.68 46.2,17.14 11.25,11.41 16.86,26.42 16.86,45.02 0,18.69 -5.66,33.75 -17,45.16 -11.35,11.46 -26.82,17.14 -46.32,17.14l-49.15 0 0 79.55 -26.92 0 0 -204.01zm71.31 26.9l-44.39 0 0 72.26 44.39 0c12.74,0 22.47,-3.4 29.33,-10.19 6.82,-6.75 10.23,-15.69 10.23,-26.81 0,-10.93 -3.36,-19.52 -10.17,-25.84 -6.77,-6.31 -16.55,-9.42 -29.38,-9.42zm53.77 177.11l70.68 -204.01 37.17 0 69.38 204.01 -30.09 0 -17.5 -53.9 -82.88 0 -17.76 53.9 -29.01 0zm74.23 -136.02l-18.52 55.65 65.3 0 -18.25 -55.65c-3.14,-10.15 -5.38,-18.51 -6.64,-25.11 -1.25,-6.61 -1.93,-14.04 -1.93,-22.39l-11.25 0c-0.36,8.79 -1.21,16.7 -2.51,23.65 -1.3,7 -3.36,14.96 -6.19,23.85zm134.59 -67.99l40.86 0 99.06 168.71 9.59 -7.24c-5.02,-8.16 -8.33,-15.93 -10.08,-23.27 -1.7,-7.33 -2.56,-17.48 -2.56,-30.35l0 -107.85 26.95 0 0 204.01 -33.63 0 -104.99 -179.53 -9.6 6.8c4.13,8.64 7.04,17.33 8.75,26.13 1.7,8.79 2.56,19.76 2.56,32.92l0 113.69 -26.91 0 0 -204.01zm264.6 118.64l-68.3 -118.64 32.34 0 31.66 57.45c4.62,8.45 7.84,15.98 9.59,22.58 1.75,6.55 2.69,14.08 2.87,22.53l11.3 0c0.19,-8.45 1.08,-16.02 2.78,-22.78 1.66,-6.7 4.67,-14.28 9.06,-22.58l29.83 -57.2 32.07 0 -66.24 117.52 0 86.49 -26.96 0 0 -85.37zm72.12 85.37l0 -37.83 34.44 0 0 37.83 -34.44 0z"/>
  <path fill="#373435" fill-rule="nonzero" stroke="#3E4095" stroke-width="12.91" stroke-miterlimit="22.9256" d="M6.46 1483.08l0 -456.82 160.5 0c65.46,0 118.41,20.77 158.98,62.42 40.56,41.65 60.89,96.35 60.89,164.09 0,71.33 -20.23,127.55 -60.57,168.65 -40.34,41.11 -94.82,61.66 -163.43,61.66l-156.37 0zm65.24 -59.91l81.55 0c110.05,0 165.07,-56.55 165.07,-169.75 0,-52.09 -13.7,-92.87 -41.11,-122.55 -27.4,-29.58 -67.2,-44.37 -119.5,-44.37l-86.02 0 0 336.66zm737.15 59.91l-322.96 0 0 -456.82 322.96 0 0 60.24 -257.72 0 0 130.27 191.17 0 0 59.59 -191.17 0 0 146.8 257.72 0 0 59.91zm37.3 -232.27c-0.43,-32.08 4.78,-62.42 15.55,-91.23 10.87,-28.82 25.88,-53.61 45.12,-74.38 19.25,-20.88 42.63,-37.3 70.25,-49.58 27.62,-12.18 57.09,-18.27 88.51,-18.27 23.16,0 45.45,2.72 66.76,8.26 21.32,5.55 41.33,13.7 59.7,24.58 18.48,10.76 34.58,25.01 48.28,42.51 13.7,17.51 23.82,37.41 30.12,59.7l-65.25 23.27c-8.59,-26.75 -23.6,-49.8 -45.24,-69.16 -20.01,-20.01 -49.91,-29.91 -89.93,-29.91 -46.21,0 -83.51,15.66 -111.56,46.98 -28.17,31.31 -42.3,73.5 -42.3,126.57 0,54.8 14.13,98.84 42.4,132.12 28.28,33.17 65.47,49.8 111.46,49.8 73.47,0 114.78,-34.17 137.67,-102.87l63.4 23.93c-12.07,41.43 -35.56,74.92 -70.25,100.58 -34.69,25.77 -78.29,38.61 -130.82,38.61 -33.93,0.43 -65.13,-5.66 -93.62,-18.16 -28.49,-12.51 -52.2,-29.69 -71.22,-51.44 -18.92,-21.74 -33.71,-47.52 -44.04,-77.09 -10.44,-29.69 -15.44,-61.22 -15,-94.82zm512.93 232.27l0 -456.82 65.24 0 0 456.82 -65.24 0zm153.21 -117.55l62.42 -28.71c9.78,30.45 25.22,54.04 46.21,71.12 20.98,16.96 47.85,25.44 80.57,25.44 30.56,0 54.37,-6.53 71.22,-19.58 16.86,-13.05 25.34,-30.88 25.34,-53.39 0,-19.36 -6.64,-34.58 -19.79,-45.88 -13.16,-11.2 -34.14,-20.01 -63.06,-26.43l-60.79 -13.7c-39.58,-8.48 -69.37,-22.95 -89.38,-43.28 -20.12,-20.44 -30.12,-48.5 -30.12,-84.16 0,-37.95 14.68,-69.16 43.93,-93.3 29.36,-24.25 67.74,-36.32 115.37,-36.32 22.95,0 44.15,3.16 63.72,9.57 19.47,6.31 35.88,14.79 49.15,25.45 13.27,10.65 24.36,22.07 33.06,34.36 8.7,12.4 15,25.12 19.03,38.28l-61.11 28.05c-18.92,-51.87 -55.46,-77.75 -109.61,-77.75 -27.18,0 -48.71,6.31 -64.48,18.92 -15.88,12.73 -23.7,29.14 -23.7,49.58 0,18.05 5.66,32.19 16.96,42.52 11.42,10.33 29.8,18.27 55.35,24.03l62.74 13.7c41.44,8.92 73.62,24.58 96.67,46.87 23.05,22.29 34.58,50.24 34.58,83.73 0,41.43 -14.9,74.7 -44.8,99.93 -29.8,25.12 -71.33,37.74 -124.4,37.74 -47.95,0 -88.08,-11.64 -120.38,-34.69 -32.29,-23.16 -53.83,-53.83 -64.7,-92.1zm450.84 117.55l0 -456.82 65.24 0 0 456.82 -65.24 0zm162.78 -228.47c-0.43,-34.14 5.22,-66.22 17.07,-96.02 11.74,-29.8 27.95,-55.13 48.5,-75.79 20.66,-20.77 45.13,-36.97 73.62,-48.61 28.49,-11.63 58.61,-17.29 90.47,-16.86 42.95,-0.65 81.88,9.03 116.79,29.14 34.91,20.01 62.31,48.39 82.21,84.92 19.79,36.54 29.47,77.53 28.82,123.2 0.43,34.26 -5.11,66.22 -16.53,96.13 -11.53,29.8 -27.41,55.14 -47.63,75.91 -20.34,20.87 -44.7,37.08 -72.97,48.82 -28.38,11.63 -58.61,17.29 -90.69,16.86 -31.86,0.43 -62.09,-5.22 -90.58,-16.86 -28.6,-11.74 -53.17,-27.95 -73.62,-48.82 -20.55,-20.77 -36.65,-46.11 -48.39,-75.91 -11.85,-29.91 -17.5,-61.87 -17.07,-96.13zm388.31 0c0,-33.93 -6.31,-64.26 -19.14,-91.01 -12.72,-26.86 -31.2,-47.96 -55.56,-63.61 -24.36,-15.66 -52.52,-23.38 -84.6,-23.38 -32.08,0 -60.24,7.72 -84.6,23.38 -24.25,15.66 -42.73,36.76 -55.35,63.61 -12.61,26.75 -19.03,57.09 -19.03,91.01 0,52.74 14.35,95.58 43.06,128.64 28.7,32.95 67.31,49.48 115.91,49.48 48.72,0 87.43,-16.53 116.13,-49.48 28.82,-33.06 43.17,-75.9 43.17,-128.64zm167.68 -228.36l99.06 0 240.21 377.76 23.27 -16.2c-12.18,-18.27 -20.23,-35.67 -24.47,-52.09 -4.13,-16.42 -6.2,-39.14 -6.2,-67.96l0 -241.51 65.35 0 0 456.82 -81.55 0 -254.56 -402.01 -23.27 15.22c10,19.36 17.07,38.82 21.2,58.5 4.13,19.68 6.2,44.26 6.2,73.73l0 254.56 -65.24 0 0 -456.82z"/>
  <path fill="#3E4095" fill-rule="nonzero" stroke="#373435" stroke-width="12.91" stroke-miterlimit="22.9256" d="M3472.46 743.58c-0.72,-57.21 8.75,-110.96 28.61,-160.89 19.68,-49.93 46.83,-92.38 81.26,-127 34.62,-34.8 75.62,-61.95 123.36,-81.44 47.74,-19.5 98.21,-28.97 151.6,-28.25 71.97,-1.09 137.2,15.13 195.69,48.83 58.49,33.53 104.41,81.08 137.75,142.31 33.17,61.22 49.38,129.91 48.29,206.44 0.73,57.4 -8.56,110.97 -27.7,161.08 -19.31,49.92 -45.92,92.38 -79.8,127.18 -34.08,34.98 -74.89,62.13 -122.26,81.81 -47.56,19.5 -98.21,28.98 -151.96,28.25 -53.39,0.73 -104.04,-8.75 -151.78,-28.25 -47.92,-19.68 -89.1,-46.83 -123.36,-81.81 -34.44,-34.81 -61.4,-77.26 -81.08,-127.18 -19.86,-50.11 -29.33,-103.68 -28.61,-161.08zm650.67 0c0,-56.85 -10.57,-107.68 -32.07,-152.51 -21.32,-45.01 -52.3,-80.35 -93.11,-106.59 -40.82,-26.24 -88,-39.17 -141.76,-39.17 -53.75,0 -100.94,12.93 -141.76,39.17 -40.63,26.24 -71.61,61.59 -92.74,106.59 -21.13,44.83 -31.88,95.66 -31.88,152.51 0,88.37 24.05,160.17 72.15,215.55 48.11,55.21 112.79,82.9 194.23,82.9 81.63,0 146.5,-27.7 194.6,-82.9 48.28,-55.39 72.34,-127.18 72.34,-215.55zm269.67 86.55l0 -469.18 109.5 0 0 453.7c0,73.25 15.67,129.18 46.83,167.63 31.34,38.45 78.71,57.58 142.13,57.58 62.86,0 110.23,-19.49 141.94,-58.67 31.7,-39.18 47.56,-94.56 47.56,-166.54l0 -453.7 109.32 0 0 469.18c0,100.39 -25.69,177.47 -77.07,231.22 -51.38,53.57 -125.36,80.53 -221.74,80.53 -94.38,0 -167.63,-26.24 -219.92,-78.71 -52.3,-52.48 -78.53,-130.28 -78.53,-233.04zm805.54 296.27l0 -765.45 326.7 0c75.43,0 135.38,19.49 180.02,58.67 44.64,39.18 67.05,88.92 67.05,149.41 0,29.34 -5.1,54.85 -15.12,76.89 -10.21,22.05 -24.42,39.72 -42.46,53.21 -18.22,13.3 -38.81,23.51 -61.95,30.61 -23.14,7.11 -49.01,11.48 -77.44,12.94l0 45.92c54.85,1.64 94.93,13.12 120.44,34.26 25.33,21.32 43.18,58.31 53.57,111.33l37.36 192.23 -119.53 0 -31.52 -182.57c-8.2,-48.47 -25.33,-82.72 -51.2,-102.94 -26.06,-20.41 -65.41,-30.43 -118.07,-30.43l-158.52 0 0 315.95 -109.32 0zm109.32 -664.51l0 250.35 200.79 0c46.65,0 83.08,-10.93 109.32,-32.44 26.42,-21.5 39.54,-52.66 39.54,-93.65 0,-40.81 -13.12,-71.79 -39.18,-92.92 -26.24,-20.96 -62.68,-31.34 -109.68,-31.34l-200.79 0z"/>
  <path fill="#373435" fill-rule="nonzero" stroke="#FFF212" stroke-width="12.91" stroke-miterlimit="22.9256" d="M550.31 786.91l-541.15 0 0 -765.45 541.15 0 0 100.94 -431.83 0 0 218.28 320.32 0 0 99.85 -320.32 0 0 245.98 431.83 0 0 100.39zm162.35 -765.45l165.99 0 402.5 632.98 38.99 -27.15c-20.41,-30.61 -33.89,-59.76 -41,-87.27 -6.92,-27.52 -10.38,-65.59 -10.38,-113.88l0 -404.68 109.5 0 0 765.45 -136.66 0 -426.55 -673.62 -38.99 25.51c16.76,32.43 28.61,65.05 35.53,98.02 6.93,32.98 10.39,74.16 10.39,123.54l0 426.55 -109.32 0 0 -765.45zm794.24 534.78l112.79 -27.15c0,60.13 8.38,104.4 25.32,132.83 16.95,28.6 43.73,42.82 80.35,42.82 36.99,0 64.14,-13.67 81.26,-40.82 17.32,-27.33 26.06,-69.78 26.06,-127.36l0 -515.1 109.33 0 0 518.38c0,89.28 -17.68,155.42 -52.84,198.24 -35.17,42.82 -89.28,64.32 -162.35,64.32 -69.24,0 -122.81,-21.5 -160.53,-64.68 -37.72,-43 -57.58,-103.49 -59.4,-181.48zm589.99 -152.15c-0.72,-57.21 8.75,-110.96 28.61,-160.89 19.68,-49.93 46.83,-92.38 81.26,-127 34.62,-34.8 75.62,-61.95 123.36,-81.44 47.74,-19.5 98.21,-28.97 151.6,-28.25 71.97,-1.09 137.2,15.13 195.69,48.83 58.49,33.53 104.41,81.08 137.75,142.31 33.17,61.22 49.38,129.91 48.29,206.44 0.73,57.4 -8.56,110.97 -27.7,161.08 -19.31,49.92 -45.92,92.38 -79.8,127.18 -34.08,34.98 -74.89,62.13 -122.26,81.81 -47.56,19.5 -98.21,28.98 -151.96,28.25 -53.39,0.73 -104.04,-8.75 -151.78,-28.25 -47.92,-19.68 -89.1,-46.83 -123.36,-81.81 -34.44,-34.81 -61.4,-77.26 -81.08,-127.18 -19.86,-50.11 -29.33,-103.68 -28.61,-161.08zm650.67 0c0,-56.85 -10.57,-107.68 -32.07,-152.51 -21.32,-45.01 -52.3,-80.35 -93.11,-106.59 -40.82,-26.24 -88,-39.17 -141.76,-39.17 -53.75,0 -100.94,12.93 -141.76,39.17 -40.63,26.24 -71.61,61.59 -92.74,106.59 -21.13,44.83 -31.88,95.66 -31.88,152.51 0,88.37 24.05,160.17 72.15,215.55 48.11,55.21 112.79,82.9 194.23,82.9 81.63,0 146.5,-27.7 194.6,-82.9 48.28,-55.39 72.34,-127.18 72.34,-215.55zm395.57 62.5l-277.5 -445.13 131.37 0 128.64 215.55c18.77,31.71 31.89,59.95 39,84.73 7.1,24.6 10.93,52.84 11.66,84.54l45.92 0c0.73,-31.71 4.37,-60.13 11.3,-85.45 6.74,-25.15 18.95,-53.57 36.8,-84.73l121.17 -214.64 130.28 0 -269.12 440.94 0.44 337.72 -109.51 0 -0.44 -333.53z"/>
  <path fill="#3E4095" stroke="#373435" stroke-width="12.91" stroke-miterlimit="22.9256" d="M3295.79 487.58l269.12 -440.94 -130.28 0 -121.17 214.64c-17.85,31.16 -30.06,59.58 -36.8,84.73 -6.93,25.33 -10.57,53.75 -11.3,85.45l-45.92 0c-0.73,-31.71 -4.56,-59.95 -11.66,-84.54 -7.11,-24.78 -20.23,-53.02 -39,-84.73l-128.64 -215.55 -131.37 0 277.5 445.13 0.44 333.53 109.51 0 -0.44 -337.72z"/>
 </g>
</svg>
